<?xml version="1.0" encoding="UTF-8"?>
<svg version="1.1" xmlns="http://www.w3.org/2000/svg" width="280" height="280">
<path d="M0 0 C0.84046875 0.55300781 1.6809375 1.10601562 2.546875 1.67578125 C3.39765625 2.25714844 4.2484375 2.83851562 5.125 3.4375 C6.83020096 4.52575713 8.53864947 5.60893926 10.25 6.6875 C11.62671875 7.56921875 11.62671875 7.56921875 13.03125 8.46875 C16.58914751 10.7328666 20.16907208 12.95999365 23.75 15.1875 C29.66658059 18.88465514 35.5659778 22.60665328 41.4375 26.375 C42.52248779 27.06577637 42.52248779 27.06577637 43.62939453 27.77050781 C49.7374613 31.70846925 52.64681686 35.1202596 55.8125 41.625 C56.51246094 43.05199219 57.21242187 44.47898438 57.93359375 45.94921875 C58.65675781 47.43035156 59.37992188 48.91148438 60.125 50.4375 C61.53859835 53.27236541 62.95514952 56.10576081 64.375 58.9375 C66.95833333 64.10416667 69.54166667 69.27083333 72.125 74.4375 C75.4231424 74.6611068 75.4231424 74.6611068 79.125 72.4375 C79.125 71.7775 79.125 71.1175 79.125 70.4375 C80.77734375 68.95703125 80.77734375 68.95703125 83.0625 67.25 C85.60439909 65.34157103 88.12661539 63.43617692 90.5859375 61.421875 C91.74996094 60.47054687 91.74996094 60.47054687 92.9375 59.5 C93.64519531 58.91347656 94.35289062 58.32695313 95.08203125 57.72265625 C97.125 56.4375 97.125 56.4375 101.125 56.4375 C104.45413388 59.29104332 106.14569962 61.47889925 108.125 65.4375 C108.785 65.4375 109.445 65.4375 110.125 65.4375 C110.125 71.36969358 108.71724146 73.17495029 105.5 78.0625 C101.93594968 83.56386087 98.58280145 89.09695384 95.5078125 94.88671875 C93.19267112 99.1573044 90.65210515 103.29020673 88.125 107.4375 C76.37703097 106.87707581 64.85483263 105.17625108 53.25 103.375 C51.38679622 103.08998789 49.52351535 102.80547925 47.66015625 102.52148438 C43.14753572 101.83261349 38.63599055 101.1369749 34.125 100.4375 C33.92922363 101.77748047 33.92922363 101.77748047 33.72949219 103.14453125 C32.87540244 107.7971817 31.10493186 112.05542996 29.375 116.4375 C28.32478864 119.12361751 27.28096219 121.81139356 26.25488281 124.50683594 C25.49629249 126.47445008 24.70861618 128.43107568 23.89355469 130.37597656 C19.3195511 141.92190249 17.76244125 153.98421608 15.875 166.1875 C15.35174909 169.49725437 14.82474472 172.80637212 14.29473877 176.11505127 C13.96837789 178.159838 13.64655809 180.20535584 13.32977295 182.25164795 C12.23450359 189.21849282 12.23450359 189.21849282 11.125 191.4375 C12.115 191.4375 13.105 191.4375 14.125 191.4375 C14.125 192.4275 14.125 193.4175 14.125 194.4375 C10.57511229 195.32497193 7.98319222 195.54295467 4.375 195.5 C3.39015625 195.49097656 2.4053125 195.48195312 1.390625 195.47265625 C0.26914062 195.45525391 0.26914062 195.45525391 -0.875 195.4375 C-0.875 196.0975 -0.875 196.7575 -0.875 197.4375 C0.115 197.4375 1.105 197.4375 2.125 197.4375 C2.125 198.4275 2.125 199.4175 2.125 200.4375 C-1.13623067 202.06811534 -4.48026263 201.56764319 -8.09375 201.5703125 C-8.90743042 201.57126923 -9.72111084 201.57222595 -10.55944824 201.57321167 C-12.28100665 201.57389263 -14.00256761 201.57204417 -15.72412109 201.56787109 C-18.36431629 201.56252165 -21.00434136 201.56781889 -23.64453125 201.57421875 C-25.31510454 201.57355795 -26.98567773 201.57227676 -28.65625 201.5703125 C-30.18314453 201.56918457 -31.71003906 201.56805664 -33.28320312 201.56689453 C-36.875 201.4375 -36.875 201.4375 -38.875 200.4375 C-38.545 199.4475 -38.215 198.4575 -37.875 197.4375 C-37.215 197.4375 -36.555 197.4375 -35.875 197.4375 C-37.62379764 193.77025871 -39.37425751 190.10381316 -41.125 186.4375 C-41.61613281 185.40753906 -42.10726562 184.37757813 -42.61328125 183.31640625 C-43.58074183 181.29118877 -44.55218574 179.26786878 -45.52783203 177.24658203 C-46.36793335 175.49482311 -47.19431566 173.73633661 -47.99951172 171.96826172 C-49.83382533 168.03225996 -50.51377846 166.62433873 -54.5 164.5625 C-57.72085238 163.73428082 -60.89055001 163.00799512 -64.1484375 162.3671875 C-66.48808594 161.90699219 -66.48808594 161.90699219 -68.875 161.4375 C-69.23327881 162.30552246 -69.59155762 163.17354492 -69.96069336 164.06787109 C-71.57719902 167.98306302 -73.19483483 171.89778702 -74.8125 175.8125 C-75.37646484 177.17890625 -75.94042969 178.5453125 -76.52148438 179.953125 C-77.05966797 181.25507813 -77.59785156 182.55703125 -78.15234375 183.8984375 C-78.64984131 185.10290527 -79.14733887 186.30737305 -79.65991211 187.54833984 C-80.35353694 189.19759768 -81.07485416 190.83720832 -81.875 192.4375 C-81.215 192.4375 -80.555 192.4375 -79.875 192.4375 C-79.875 193.4275 -79.875 194.4175 -79.875 195.4375 C-83.03745541 196.4916518 -85.74448218 196.75025672 -89.0625 197 C-90.14917969 197.08378906 -91.23585938 197.16757813 -92.35546875 197.25390625 C-93.18691406 197.31449219 -94.01835938 197.37507812 -94.875 197.4375 C-95.205 198.7575 -95.535 200.0775 -95.875 201.4375 C-107.095 201.4375 -118.315 201.4375 -129.875 201.4375 C-130.205 200.1175 -130.535 198.7975 -130.875 197.4375 C-129.885 197.4375 -128.895 197.4375 -127.875 197.4375 C-128.56335938 195.13458984 -128.56335938 195.13458984 -129.265625 192.78515625 C-138.875 160.39703397 -138.875 160.39703397 -138.875 153.4375 C-141.92016202 156.27082467 -144.04368601 159.09250311 -146.125 162.6875 C-146.64578125 163.57953125 -147.1665625 164.4715625 -147.703125 165.390625 C-148.28320312 166.40382812 -148.28320312 166.40382812 -148.875 167.4375 C-153.76892335 166.00696856 -157.85532482 163.88297039 -162.25 161.3125 C-163.49523437 160.58804688 -164.74046875 159.86359375 -166.0234375 159.1171875 C-167.43496094 158.28574219 -167.43496094 158.28574219 -168.875 157.4375 C-168.875 153.4375 -168.875 153.4375 -167.875 151.4375 C-163.915 152.0975 -159.955 152.7575 -155.875 153.4375 C-155.77960938 152.25414062 -155.68421875 151.07078125 -155.5859375 149.8515625 C-154.82793259 143.0454763 -153.10979054 136.45787502 -151.5 129.8125 C-149.34219819 120.84299334 -147.32404866 111.87442158 -145.54931641 102.82080078 C-144.70503425 98.58471746 -143.74939049 94.38966159 -142.75 90.1875 C-142.25113281 88.07601562 -142.25113281 88.07601562 -141.7421875 85.921875 C-140.875 82.4375 -140.875 82.4375 -139.875 79.4375 C-129.84473259 74.9998075 -118.18761441 73.22729275 -107.5625 70.6875 C-101.725625 69.285 -95.88875 67.8825 -89.875 66.4375 C-83.44 41.1925 -83.44 41.1925 -76.875 15.4375 C-60.875 13.4375 -60.875 13.4375 -52.875 13.4375 C-53.3803125 12.81101562 -53.885625 12.18453125 -54.40625 11.5390625 C-55.38078125 10.31316406 -55.38078125 10.31316406 -56.375 9.0625 C-57.0246875 8.25039063 -57.674375 7.43828125 -58.34375 6.6015625 C-59.875 4.4375 -59.875 4.4375 -59.875 2.4375 C-53.48937676 1.71911261 -47.10307076 1.00725489 -40.71606445 0.30126953 C-38.54627143 0.06052252 -36.3766707 -0.18196457 -34.20727539 -0.42626953 C-31.07748348 -0.77841604 -27.94703873 -1.12416608 -24.81640625 -1.46875 C-23.85666397 -1.5781189 -22.89692169 -1.68748779 -21.90809631 -1.8001709 C-5.29343328 -3.60744653 -5.29343328 -3.60744653 0 0 Z " fill="#FDC12E" transform="translate(169.875,43.5625)"/>
<path d="M0 0 C0.84046875 0.55300781 1.6809375 1.10601562 2.546875 1.67578125 C3.82304687 2.54783203 3.82304687 2.54783203 5.125 3.4375 C6.83020096 4.52575713 8.53864947 5.60893926 10.25 6.6875 C11.62671875 7.56921875 11.62671875 7.56921875 13.03125 8.46875 C16.58914751 10.7328666 20.16907208 12.95999365 23.75 15.1875 C29.66658059 18.88465514 35.5659778 22.60665328 41.4375 26.375 C42.52248779 27.06577637 42.52248779 27.06577637 43.62939453 27.77050781 C49.7374613 31.70846925 52.64681686 35.1202596 55.8125 41.625 C56.51246094 43.05199219 57.21242187 44.47898438 57.93359375 45.94921875 C58.65675781 47.43035156 59.37992188 48.91148438 60.125 50.4375 C61.53859835 53.27236541 62.95514952 56.10576081 64.375 58.9375 C66.95833333 64.10416667 69.54166667 69.27083333 72.125 74.4375 C75.4231424 74.6611068 75.4231424 74.6611068 79.125 72.4375 C79.125 71.7775 79.125 71.1175 79.125 70.4375 C80.77734375 68.95703125 80.77734375 68.95703125 83.0625 67.25 C85.60439909 65.34157103 88.12661539 63.43617692 90.5859375 61.421875 C91.36195313 60.78765625 92.13796875 60.1534375 92.9375 59.5 C93.64519531 58.91347656 94.35289062 58.32695313 95.08203125 57.72265625 C97.125 56.4375 97.125 56.4375 101.125 56.4375 C104.45413388 59.29104332 106.14569962 61.47889925 108.125 65.4375 C108.785 65.4375 109.445 65.4375 110.125 65.4375 C110.125 71.36969358 108.71724146 73.17495029 105.5 78.0625 C101.93594968 83.56386087 98.58280145 89.09695384 95.5078125 94.88671875 C93.19267112 99.1573044 90.65210515 103.29020673 88.125 107.4375 C76.07855935 106.80643894 64.31018447 105.05462061 52.40625 103.16601562 C37.45315599 100.43618427 37.45315599 100.43618427 23.3125 104.625 C18.98824739 106.94917003 14.79709434 109.05940999 10.1875 110.75 C2.68783206 113.51939411 -4.59966302 116.74890131 -11.91772461 119.96020508 C-13.35063843 120.5889856 -13.35063843 120.5889856 -14.8125 121.23046875 C-16.09447266 121.79544067 -16.09447266 121.79544067 -17.40234375 122.37182617 C-18.21832031 122.72349854 -19.03429687 123.0751709 -19.875 123.4375 C-20.74962891 123.84234619 -21.62425781 124.24719238 -22.52539062 124.66430664 C-23.68844727 125.04703735 -23.68844727 125.04703735 -24.875 125.4375 C-27.53125 124.015625 -27.53125 124.015625 -30.375 121.6875 C-31.43203125 120.84316406 -32.4890625 119.99882812 -33.578125 119.12890625 C-34.66609375 118.24074219 -35.7540625 117.35257812 -36.875 116.4375 C-38.9531735 114.82665446 -41.03655423 113.22250516 -43.125 111.625 C-44.2078125 110.7896875 -45.290625 109.954375 -46.40625 109.09375 C-50.79037721 105.73653547 -55.21114753 102.42952194 -59.63378906 99.12329102 C-65.43374974 94.78165778 -71.19311698 90.38832346 -76.94042969 85.97729492 C-81.56196819 82.43204381 -86.21031144 78.92560417 -90.875 75.4375 C-90.125 69.6875 -90.125 69.6875 -87.875 67.4375 C-86.885 67.4375 -85.895 67.4375 -84.875 67.4375 C-83.18280849 65.57651133 -81.50109807 63.70442742 -79.88574219 61.77636719 C-76.48259005 57.81786823 -72.72105452 54.2193984 -69 50.5625 C-67.47949184 49.06741839 -65.96114589 47.57013356 -64.4453125 46.0703125 C-63.78289551 45.41949707 -63.12047852 44.76868164 -62.43798828 44.09814453 C-60.78955548 42.50607485 -60.78955548 42.50607485 -59.875 40.4375 C-59.215 40.4375 -58.555 40.4375 -57.875 40.4375 C-57.875 39.7775 -57.875 39.1175 -57.875 38.4375 C-57.215 38.4375 -56.555 38.4375 -55.875 38.4375 C-58.5396377 33.0766281 -62.81375588 29.35031638 -67.0625 25.25 C-69.71866642 22.68518926 -72.31035802 20.09658219 -74.875 17.4375 C-74.875 16.7775 -74.875 16.1175 -74.875 15.4375 C-71.20220288 13.60110144 -66.8069781 14.04520335 -62.75 13.875 C-61.80511719 13.83181641 -60.86023438 13.78863281 -59.88671875 13.74414062 C-57.54965828 13.6379106 -55.2123487 13.53718729 -52.875 13.4375 C-53.3803125 12.81101562 -53.885625 12.18453125 -54.40625 11.5390625 C-55.38078125 10.31316406 -55.38078125 10.31316406 -56.375 9.0625 C-57.0246875 8.25039063 -57.674375 7.43828125 -58.34375 6.6015625 C-59.875 4.4375 -59.875 4.4375 -59.875 2.4375 C-53.48937676 1.71911261 -47.10307076 1.00725489 -40.71606445 0.30126953 C-38.54627143 0.06052252 -36.3766707 -0.18196457 -34.20727539 -0.42626953 C-31.07748348 -0.77841604 -27.94703873 -1.12416608 -24.81640625 -1.46875 C-23.85666397 -1.5781189 -22.89692169 -1.68748779 -21.90809631 -1.8001709 C-5.29343328 -3.60744653 -5.29343328 -3.60744653 0 0 Z " fill="#FECA2E" transform="translate(169.875,43.5625)"/>
<path d="M0 0 C0.66 0 1.32 0 2 0 C3.58885304 1.79609474 5.16970033 3.59976112 6.71484375 5.43359375 C10.4563365 9.63557791 14.56055115 13.47213552 18.62109375 17.36328125 C21 20 21 20 21 23 C20.34 23 19.68 23 19 23 C19 23.66 19 24.32 19 25 C18.34 25 17.68 25 17 25 C16.34 26.32 15.68 27.64 15 29 C13.4776742 30.67375311 11.89688302 32.29503276 10.28125 33.87890625 C8.88326172 35.26045898 8.88326172 35.26045898 7.45703125 36.66992188 C6.48121094 37.62447266 5.50539063 38.57902344 4.5 39.5625 C2.5707063 41.45738754 0.64352165 43.35442551 -1.28125 45.25390625 C-2.13783203 46.09252197 -2.99441406 46.9311377 -3.87695312 47.79516602 C-6.13384095 50.00841159 -6.13384095 50.00841159 -8 53 C-9.32 53.33 -10.64 53.66 -12 54 C-13.3045656 56.99615946 -13.3045656 56.99615946 -14 60 C-12.68 60.66 -11.36 61.32 -10 62 C-7.99552166 63.46600385 -6.01948866 64.9711782 -4.0625 66.5 C-2.90492187 67.39976563 -1.74734375 68.29953125 -0.5546875 69.2265625 C0.61835937 70.14179688 1.79140625 71.05703125 3 72 C11.32321389 78.44179945 19.70254787 84.80467633 28.1328125 91.10546875 C30.54915563 92.91406497 32.96133644 94.72825139 35.3671875 96.55078125 C37.34783198 98.05012409 39.34184521 99.53204438 41.3515625 100.9921875 C44 103 44 103 46.2109375 105.1328125 C48.52239743 107.1864888 49.98164329 108.286742 53 109 C56.8715836 107.92056219 60.08300721 106.25805918 63.62109375 104.3515625 C68.57690508 101.69019013 73.63176085 99.49103662 78.8125 97.3125 C79.67133789 96.94503662 80.53017578 96.57757324 81.41503906 96.19897461 C86.49320589 94.03007259 91.59861741 91.94899787 96.7434082 89.94311523 C99.00709246 88.99703579 101.19319209 87.87207264 103.375 86.75 C107 85 107 85 111 85 C110.36520993 90.67577002 108.33064293 95.72954786 106.25 101 C105.19978864 103.68611751 104.15596219 106.37389356 103.12988281 109.06933594 C102.37129249 111.03695008 101.58361618 112.99357568 100.76855469 114.93847656 C96.1945511 126.48440249 94.63744125 138.54671608 92.75 150.75 C92.22674909 154.05975437 91.69974472 157.36887212 91.16973877 160.67755127 C90.84337789 162.722338 90.52155809 164.76785584 90.20477295 166.81414795 C89.10950359 173.78099282 89.10950359 173.78099282 88 176 C88.99 176 89.98 176 91 176 C91 176.99 91 177.98 91 179 C87.45011229 179.88747193 84.85819222 180.10545467 81.25 180.0625 C80.26515625 180.05347656 79.2803125 180.04445312 78.265625 180.03515625 C77.14414062 180.01775391 77.14414062 180.01775391 76 180 C76 180.66 76 181.32 76 182 C76.99 182 77.98 182 79 182 C79 182.99 79 183.98 79 185 C75.73876933 186.63061534 72.39473737 186.13014319 68.78125 186.1328125 C67.96756958 186.13376923 67.15388916 186.13472595 66.31555176 186.13571167 C64.59399335 186.13639263 62.87243239 186.13454417 61.15087891 186.13037109 C58.51068371 186.12502165 55.87065864 186.13031889 53.23046875 186.13671875 C51.55989546 186.13605795 49.88932227 186.13477676 48.21875 186.1328125 C46.69185547 186.13168457 45.16496094 186.13055664 43.59179688 186.12939453 C40 186 40 186 38 185 C38.33 184.01 38.66 183.02 39 182 C39.66 182 40.32 182 41 182 C40.319375 180.741875 39.63875 179.48375 38.9375 178.1875 C37 174 37 174 38 171 C38.66 171 39.32 171 40 171 C41.25664978 173.90600261 42 175.79604584 42 179 C42.75095947 178.96970703 43.50191895 178.93941406 44.27563477 178.90820312 C47.70453394 178.77069811 51.13351435 178.63533063 54.5625 178.5 C56.33463867 178.42845703 56.33463867 178.42845703 58.14257812 178.35546875 C59.29306641 178.31035156 60.44355469 178.26523438 61.62890625 178.21875 C62.74023926 178.17234375 63.85157227 178.1259375 64.99658203 178.078125 C68 178 68 178 72.15234375 178.21875 C73.09207031 178.1465625 74.03179687 178.074375 75 178 C78.02759202 173.96321064 78.99410465 171.28216108 80.375 166.5 C82.19017953 160.47295179 84.24458143 154.72459434 86.734375 148.94921875 C88.13072166 145.69538626 89.45426544 142.42018703 90.75 139.125 C91.15734375 138.09632813 91.5646875 137.06765625 91.984375 136.0078125 C92.99909534 133.00267917 93.56917497 130.13753012 94 127 C92.3603125 127.7115625 92.3603125 127.7115625 90.6875 128.4375 C87 130 87 130 84 131 C83.34 130.34 82.68 129.68 82 129 C82.56818182 123.43181818 82.56818182 123.43181818 84 122 C77.69707058 121.70909557 73.68504876 122.36803298 68 125 C62.08326807 126.27615787 52.59265552 127.79632776 47 125 C47 124.34 47 123.68 47 123 C46.071875 122.87625 45.14375 122.7525 44.1875 122.625 C41 122 41 122 38 120 C37.67 119.01 37.34 118.02 37 117 C33.0293688 113.81047658 29.55346617 111.27673308 25 109 C24.67 107.68 24.34 106.36 24 105 C23.01 105 22.02 105 21 105 C21 104.34 21 103.68 21 103 C19.02 102.67 17.04 102.34 15 102 C15 101.34 15 100.68 15 100 C14.01 100 13.02 100 12 100 C10.17578125 98.25 10.17578125 98.25 8.3125 96 C7.68988281 95.2575 7.06726563 94.515 6.42578125 93.75 C5.95527344 93.1725 5.48476562 92.595 5 92 C3.02 92.99 3.02 92.99 1 94 C-2.51175426 93.94114791 -5.94982747 93.77415204 -9.44921875 93.53515625 C-35.07248845 91.28477053 -35.07248845 91.28477053 -57.87109375 100.625 C-64.04215661 106.45998778 -69.3298943 112.9113111 -74 120 C-75.18513712 115.25945151 -74.44995695 112.89602674 -73.25 108.1875 C-71.87840582 102.64005915 -70.58253027 97.11111526 -69.5 91.5 C-65.72797927 72.18393782 -65.72797927 72.18393782 -63 64 C-52.96973259 59.5623075 -41.31261441 57.78979275 -30.6875 55.25 C-24.850625 53.8475 -19.01375 52.445 -13 51 C-6.565 25.755 -6.565 25.755 0 0 Z " fill="#FAAE20" transform="translate(93,59)"/>
<path d="M0 0 C0.84046875 0.55300781 1.6809375 1.10601562 2.546875 1.67578125 C3.82304687 2.54783203 3.82304687 2.54783203 5.125 3.4375 C6.83020096 4.52575713 8.53864947 5.60893926 10.25 6.6875 C11.62671875 7.56921875 11.62671875 7.56921875 13.03125 8.46875 C16.58914751 10.7328666 20.16907208 12.95999365 23.75 15.1875 C29.66658059 18.88465514 35.5659778 22.60665328 41.4375 26.375 C42.52248779 27.06577637 42.52248779 27.06577637 43.62939453 27.77050781 C49.7374613 31.70846925 52.64681686 35.1202596 55.8125 41.625 C56.51246094 43.05199219 57.21242188 44.47898438 57.93359375 45.94921875 C58.65675781 47.43035156 59.37992187 48.91148438 60.125 50.4375 C61.53859835 53.27236541 62.95514952 56.10576081 64.375 58.9375 C66.95833333 64.10416667 69.54166667 69.27083333 72.125 74.4375 C75.4231424 74.6611068 75.4231424 74.6611068 79.125 72.4375 C79.125 71.7775 79.125 71.1175 79.125 70.4375 C80.77734375 68.95703125 80.77734375 68.95703125 83.0625 67.25 C85.60439909 65.34157103 88.12661539 63.43617692 90.5859375 61.421875 C91.36195313 60.78765625 92.13796875 60.1534375 92.9375 59.5 C93.64519531 58.91347656 94.35289062 58.32695313 95.08203125 57.72265625 C97.125 56.4375 97.125 56.4375 101.125 56.4375 C104.45413388 59.29104332 106.14569962 61.47889925 108.125 65.4375 C108.785 65.4375 109.445 65.4375 110.125 65.4375 C110.125 71.36969358 108.71724146 73.17495029 105.5 78.0625 C101.93594968 83.56386087 98.58280145 89.09695384 95.5078125 94.88671875 C93.19267112 99.1573044 90.65210515 103.29020673 88.125 107.4375 C87.34495605 107.37908936 86.56491211 107.32067871 85.76123047 107.26049805 C84.64119629 107.17840088 83.52116211 107.09630371 82.3671875 107.01171875 C81.08553711 106.91552246 79.80388672 106.81932617 78.48339844 106.72021484 C75.48409715 106.52566012 72.48132796 106.38033931 69.47753906 106.27587891 C39.32336391 105.08471398 39.32336391 105.08471398 30.91503906 97.56787109 C25.67727545 90.47073169 22.57396169 82.52835592 19.59277344 74.27880859 C17.43004922 68.61874491 14.51671057 63.48984271 11.5 58.25 C10.58706489 56.59208439 9.67800978 54.93202445 8.7734375 53.26953125 C8.34023193 52.4801416 7.90702637 51.69075195 7.46069336 50.87744141 C6.53630022 49.18883145 5.61547176 47.49826701 4.69750977 45.80615234 C0.41890065 37.92246454 -4.00614494 30.12617599 -8.45898438 22.33984375 C-9.29333008 20.87224609 -9.29333008 20.87224609 -10.14453125 19.375 C-10.89633667 18.05822266 -10.89633667 18.05822266 -11.66333008 16.71484375 C-12.875 14.4375 -12.875 14.4375 -13.875 11.4375 C-5.12820449 13.11673711 2.92684238 16.18898155 11.23828125 19.3359375 C12.30949219 19.73296875 13.38070312 20.13 14.484375 20.5390625 C15.44827148 20.90338379 16.41216797 21.26770508 17.40527344 21.64306641 C20.45267679 22.67115316 20.45267679 22.67115316 25.125 22.4375 C24.27035156 22.13457031 23.41570312 21.83164063 22.53515625 21.51953125 C21.43042969 21.10058594 20.32570313 20.68164062 19.1875 20.25 C18.08535156 19.84394531 16.98320312 19.43789063 15.84765625 19.01953125 C13.125 17.4375 13.125 17.4375 12.24609375 14.76171875 C12.18615234 13.61123047 12.18615234 13.61123047 12.125 12.4375 C10.743125 12.334375 9.36125 12.23125 7.9375 12.125 C3.51173757 11.49274822 1.67257497 10.87012284 -1.875 8.4375 C-3.195 8.1075 -4.515 7.7775 -5.875 7.4375 C-6.37 5.9525 -6.37 5.9525 -6.875 4.4375 C-9.27644267 4.6332792 -9.27644267 4.6332792 -11.875 5.4375 C-12.865 6.7575 -13.855 8.0775 -14.875 9.4375 C-17.62719727 10.25878906 -17.62719727 10.25878906 -20.94140625 10.703125 C-22.75415039 10.95449219 -22.75415039 10.95449219 -24.60351562 11.2109375 C-25.86873047 11.36820313 -27.13394531 11.52546875 -28.4375 11.6875 C-30.2947168 11.94660156 -30.2947168 11.94660156 -32.18945312 12.2109375 C-51.15336068 14.74079706 -51.15336068 14.74079706 -55.3828125 11.5390625 C-55.91648437 10.72179688 -56.45015625 9.90453125 -57 9.0625 C-57.83917969 7.84433594 -57.83917969 7.84433594 -58.6953125 6.6015625 C-59.875 4.4375 -59.875 4.4375 -59.875 2.4375 C-53.48937676 1.71911261 -47.10307076 1.00725489 -40.71606445 0.30126953 C-38.54627143 0.06052252 -36.3766707 -0.18196457 -34.20727539 -0.42626953 C-31.07748348 -0.77841604 -27.94703873 -1.12416608 -24.81640625 -1.46875 C-23.85666397 -1.5781189 -22.89692169 -1.68748779 -21.90809631 -1.8001709 C-5.29343328 -3.60744653 -5.29343328 -3.60744653 0 0 Z " fill="#FBAD28" transform="translate(169.875,43.5625)"/>
<path d="M0 0 C2.68229147 1.64140225 5.35055398 3.30609189 8 5 C9.32 5.33 10.64 5.66 12 6 C12 6.66 12 7.32 12 8 C13.32 8.33 14.64 8.66 16 9 C17.03125 9.350625 18.0625 9.70125 19.125 10.0625 C21.81291118 11.1033402 21.81291118 11.1033402 24 11 C24 11.66 24 12.32 24 13 C25.546875 12.7215625 25.546875 12.7215625 27.125 12.4375 C32.32678619 11.85020156 35.61974204 12.07982802 40 15 C40 15.66 40 16.32 40 17 C41.98 17.495 41.98 17.495 44 18 C47 19.33333333 50 20.66666667 53 22 C54.98 22.495 54.98 22.495 57 23 C63.38767367 30.87136315 66.69557291 40.95390602 67 51 C66.01 51.99 65.02 52.98 64 54 C63.45730469 52.90300781 62.91460937 51.80601562 62.35546875 50.67578125 C61.64003906 49.23589844 60.92460938 47.79601562 60.1875 46.3125 C59.47980469 44.88550781 58.77210937 43.45851562 58.04296875 41.98828125 C57.36878906 40.67214844 56.69460937 39.35601562 56 38 C55.56300781 37.05125 55.12601562 36.1025 54.67578125 35.125 C52.23734725 32.03290653 49.76592576 31.64074996 46 30.6875 C44.7625 30.36136719 43.525 30.03523438 42.25 29.69921875 C39.06524587 28.89483426 39.06524587 28.89483426 36 29 C35.46258179 30.30203369 35.46258179 30.30203369 34.91430664 31.63037109 C33.29780098 35.54556302 31.68016517 39.46028702 30.0625 43.375 C29.49853516 44.74140625 28.93457031 46.1078125 28.35351562 47.515625 C27.81533203 48.81757813 27.27714844 50.11953125 26.72265625 51.4609375 C26.22515869 52.66540527 25.72766113 53.86987305 25.21508789 55.11083984 C24.52146306 56.76009768 23.80014584 58.39970832 23 60 C23.66 60 24.32 60 25 60 C25 60.99 25 61.98 25 63 C21.83754459 64.0541518 19.13051782 64.31275672 15.8125 64.5625 C14.72582031 64.64628906 13.63914062 64.73007813 12.51953125 64.81640625 C11.68808594 64.87699219 10.85664062 64.93757813 10 65 C9.505 66.98 9.505 66.98 9 69 C-2.22 69 -13.44 69 -25 69 C-25.33 67.68 -25.66 66.36 -26 65 C-25.01 65 -24.02 65 -23 65 C-23.68835937 62.69708984 -23.68835937 62.69708984 -24.390625 60.34765625 C-34 27.95953397 -34 27.95953397 -34 21 C-37.04516202 23.83332467 -39.16868601 26.65500311 -41.25 30.25 C-41.77078125 31.14203125 -42.2915625 32.0340625 -42.828125 32.953125 C-43.21484375 33.62859375 -43.6015625 34.3040625 -44 35 C-48.89392335 33.56946856 -52.98032482 31.44547039 -57.375 28.875 C-58.62023438 28.15054688 -59.86546875 27.42609375 -61.1484375 26.6796875 C-62.08945312 26.12539062 -63.03046875 25.57109375 -64 25 C-64 21 -64 21 -63 19 C-57.06 19.99 -57.06 19.99 -51 21 C-50.87625 19.68 -50.7525 18.36 -50.625 17 C-50.20701035 12.54144372 -49.12806378 8.3288301 -48 4 C-45.29085542 4.62147415 -42.58271427 5.24732343 -39.875 5.875 C-37.61269531 6.39707031 -37.61269531 6.39707031 -35.3046875 6.9296875 C-31.78587688 7.80460049 -28.43019126 8.84313137 -25 10 C-23.3603125 10.2165625 -23.3603125 10.2165625 -21.6875 10.4375 C-18.12184865 10.98141292 -14.96100377 11.99117271 -11.55688477 13.15112305 C-7.11727843 14.62505709 -2.62188733 15.901314 1.875 17.1875 C2.81085938 17.46013672 3.74671875 17.73277344 4.7109375 18.01367188 C9.77452433 19.50663083 9.77452433 19.50663083 15 20 C14.175 19.54625 13.35 19.0925 12.5 18.625 C11.675 18.08875 10.85 17.5525 10 17 C10 16.34 10 15.68 10 15 C9.34 15 8.68 15 8 15 C8 14.34 8 13.68 8 13 C8.66 12.67 9.32 12.34 10 12 C8.02 11.01 6.04 10.02 4 9 C4 8.34 4 7.68 4 7 C2.948125 6.71125 1.89625 6.4225 0.8125 6.125 C-2.22818711 5.22774807 -5.08712344 4.23576581 -8 3 C-8 2.34 -8 1.68 -8 1 C-8.66 1 -9.32 1 -10 1 C-10 0.34 -10 -0.32 -10 -1 C-5.9137482 -2.36208393 -4.03851692 -1.4565143 0 0 Z " fill="#FEB018" transform="translate(65,176)"/>
<path d="M0 0 C2.93012342 1.49950991 5.73642491 3.15373263 8.57421875 4.8203125 C9.77498047 5.40425781 9.77498047 5.40425781 11 6 C11.66 5.67 12.32 5.34 13 5 C14.2375 5.474375 15.475 5.94875 16.75 6.4375 C20.74417341 8.19814631 20.74417341 8.19814631 24.1875 7.9375 C27.95460249 8.02121339 29.17787163 9.60119088 32 12 C35.17921787 13.25556887 35.17921787 13.25556887 38 14 C38 14.66 38 15.32 38 16 C41.63 16.33 45.26 16.66 49 17 C49 17.66 49 18.32 49 19 C50.52625 18.97292969 52.0525 18.94585937 53.625 18.91796875 C56.88001146 19.24565062 58.47160605 19.47881913 60.82421875 21.79931641 C62.3950438 24.24161953 63.7205779 26.70591618 65 29.3125 C65.46277344 30.18068359 65.92554687 31.04886719 66.40234375 31.94335938 C67.63917639 34.2790013 68.82948198 36.63060223 70 39 C70.99 40.98 70.99 40.98 72 43 C67.12239864 44.21940034 66.07295382 43.3649428 61.75 41.0625 C60.13351563 40.21365234 60.13351563 40.21365234 58.484375 39.34765625 C57.66453125 38.90292969 56.8446875 38.45820313 56 38 C56 37.34 56 36.68 56 36 C50.49247846 34.64430239 45.71262641 33.75690951 40 34 C40 33.34 40 32.68 40 32 C38.515 32.495 38.515 32.495 37 33 C33.86472008 31.92241675 30.99755446 30.433613 28 29 C28 28.34 28 27.68 28 27 C27.26394531 26.8865625 26.52789062 26.773125 25.76953125 26.65625 C22.22479449 25.81631238 19.48196936 23.96255179 16.359375 22.14453125 C12.9830182 20.5066628 9.71283225 20.20251812 6 20 C6 20.66 6 21.32 6 22 C6.66 22 7.32 22 8 22 C8 22.66 8 23.32 8 24 C8.680625 24.103125 9.36125 24.20625 10.0625 24.3125 C13.6134245 25.14356744 16.71639871 26.42134553 20 28 C20.495 28.99 20.495 28.99 21 30 C22.97522846 31.04808041 24.97481509 32.0520411 27 33 C26.01 33.33 25.02 33.66 24 34 C24 34.66 24 35.32 24 36 C24.66 36 25.32 36 26 36 C26 36.66 26 37.32 26 38 C27.2065625 38.433125 27.2065625 38.433125 28.4375 38.875 C31 40 31 40 32 42 C26.00881332 41.43556357 20.76102811 40.09992022 15.0625 38.1875 C7.47869208 35.70161384 -0.11254569 33.69625027 -7.90234375 31.9375 C-12.05986171 30.98630428 -16.18667304 29.95510099 -20.3125 28.875 C-21.50488281 28.56304687 -22.69726562 28.25109375 -23.92578125 27.9296875 C-27 27 -27 27 -31 25 C-26.20622569 19.23200704 -21.06439896 13.91368413 -15.75 8.625 C-14.9353125 7.80644531 -14.120625 6.98789063 -13.28125 6.14453125 C-12.50265625 5.36722656 -11.7240625 4.58992187 -10.921875 3.7890625 C-10.21643555 3.08475098 -9.51099609 2.38043945 -8.78417969 1.65478516 C-5.60930923 -1.28983334 -4.08515076 -1.13379005 0 0 Z " fill="#FEA424" transform="translate(49,155)"/>
<path d="M0 0 C0.51699553 5.6506704 -1.37230052 9.98408706 -3.5625 15.0625 C-7.00516665 23.28998104 -9.96181832 31.57674392 -12.56469727 40.10766602 C-14.06434178 44.85078132 -15.37191642 48.549588 -19 52 C-22.48339844 52.56762695 -22.48339844 52.56762695 -26.609375 52.48828125 C-28.08535156 52.47216797 -29.56132812 52.45605469 -31.08203125 52.43945312 C-32.62246094 52.39755859 -34.16289062 52.35566406 -35.75 52.3125 C-37.30589844 52.28994141 -38.86179688 52.26738281 -40.46484375 52.24414062 C-44.31085773 52.18515268 -48.15494989 52.10286807 -52 52 C-53.25664978 49.09399739 -54 47.20395416 -54 44 C-55.485 44.495 -55.485 44.495 -57 45 C-56.79375 43.88625 -56.5875 42.7725 -56.375 41.625 C-56.05457221 37.67305723 -56.20103376 35.42417838 -57.0625 31.6875 C-57.371875 30.140625 -57.68125 28.59375 -58 27 C-55.66299966 23.49449948 -54.41148882 23.11654573 -50.5625 21.625 C-44.61900815 19.25325028 -38.80584114 16.68902116 -33 14 C-31.8346875 13.46375 -30.669375 12.9275 -29.46875 12.375 C-21.85647435 8.85196333 -14.35367057 5.18329886 -6.92578125 1.28515625 C-4 0 -4 0 0 0 Z " fill="#FEB620" transform="translate(187,186)"/>
<path d="M0 0 C3.69290026 1.30642006 6.32292832 2.85802491 9.3125 5.375 C13.74665026 9.01615766 18.27711967 12.50673215 22.875 15.9375 C23.90633057 16.70707031 23.90633057 16.70707031 24.95849609 17.4921875 C25.64121582 18.00136719 26.32393555 18.51054687 27.02734375 19.03515625 C30.50899834 21.63355924 33.97427407 24.25214818 37.4375 26.875 C38.39914063 27.57367188 39.36078125 28.27234375 40.3515625 28.9921875 C43 31 43 31 45.2109375 33.1328125 C47.52239743 35.1864888 48.98164329 36.286742 52 37 C55.8715836 35.92056219 59.08300721 34.25805918 62.62109375 32.3515625 C67.57690508 29.69019013 72.63176085 27.49103662 77.8125 25.3125 C78.67133789 24.94503662 79.53017578 24.57757324 80.41503906 24.19897461 C85.49320589 22.03007259 90.59861741 19.94899787 95.7434082 17.94311523 C98.00709246 16.99703579 100.19319209 15.87207264 102.375 14.75 C106 13 106 13 110 13 C109.35735325 18.91235008 107.20687288 24.12933287 105.0625 29.625 C104.70220703 30.56601563 104.34191406 31.50703125 103.97070312 32.4765625 C102.44755655 36.42608438 100.89617301 40.20765398 99 44 C99 43.01 99 42.02 99 41 C98.34 41 97.68 41 97 41 C96.67 40.01 96.34 39.02 96 38 C96.99 37.34 97.98 36.68 99 36 C99.33 35.01 99.66 34.02 100 33 C97.32646358 33.27280984 94.66174031 33.62937793 92 34 C90.91976562 34.14953125 89.83953125 34.2990625 88.7265625 34.453125 C79.41502986 36.0017381 71.85111889 39.07444056 63.484375 43.2578125 C58.70145534 45.64927233 55.35550616 46.55401788 50 46 C47.3125 43.6875 47.3125 43.6875 45 41 C43.68 40.01 42.36 39.02 41 38 C41 37.34 41 36.68 41 36 C40.01 35.67 39.02 35.34 38 35 C38 34.34 38 33.68 38 33 C36.68 32.34 35.36 31.68 34 31 C28.79253214 27.29016857 23.9483321 23.13714319 19.17578125 18.890625 C15.73435003 15.90022516 12.17001244 13.06249912 8.61328125 10.2109375 C1.3573907 4.0721721 1.3573907 4.0721721 0 0 Z " fill="#F18211" transform="translate(94,131)"/>
<path d="M0 0 C3.9446398 1.9723199 6.07895312 3.76316427 9 7 C9.495 8.485 9.495 8.485 10 10 C10.66 10 11.32 10 12 10 C12 15.93219358 10.59224146 17.73745029 7.375 22.625 C4.34702854 27.29888567 1.37618828 31.95967435 -1.25 36.875 C-1.71019531 37.72449219 -2.17039062 38.57398438 -2.64453125 39.44921875 C-3.6026182 41.25218929 -4.53514702 43.06885159 -5.44921875 44.89453125 C-6.82634268 47.47889768 -8.08488988 49.78374235 -10 52 C-13.875 52.625 -13.875 52.625 -17 52 C-17 51.67 -17 51.34 -17 51 C-15.35 51 -13.7 51 -12 51 C-12.50789062 49.99582031 -13.01578125 48.99164063 -13.5390625 47.95703125 C-17.8581525 39.37546854 -22.04255861 30.75434005 -26 22 C-24.37660195 20.29115995 -22.70680947 18.62553283 -21 17 C-20.34 17 -19.68 17 -19 17 C-19 16.34 -19 15.68 -19 15 C-17.34765625 13.51953125 -17.34765625 13.51953125 -15.0625 11.8125 C-13.84240234 10.89017578 -13.84240234 10.89017578 -12.59765625 9.94921875 C-11.74042969 9.30597656 -10.88320313 8.66273437 -10 8 C-8.33066113 6.71178873 -6.66385018 5.42029268 -5 4.125 C-4.2575 3.55007812 -3.515 2.97515625 -2.75 2.3828125 C-1.07791957 1.11672295 -1.07791957 1.11672295 0 0 Z " fill="#EC860B" transform="translate(268,99)"/>
<path d="M0 0 C0.66 0 1.32 0 2 0 C3.58885304 1.79609474 5.16970033 3.59976112 6.71484375 5.43359375 C10.4563365 9.63557791 14.56055115 13.47213552 18.62109375 17.36328125 C21 20 21 20 21 23 C20.34 23 19.68 23 19 23 C19 23.66 19 24.32 19 25 C18.34 25 17.68 25 17 25 C16.34 26.32 15.68 27.64 15 29 C13.4776742 30.67375311 11.89688302 32.29503276 10.28125 33.87890625 C8.88326172 35.26045898 8.88326172 35.26045898 7.45703125 36.66992188 C6.48121094 37.62447266 5.50539063 38.57902344 4.5 39.5625 C2.5707063 41.45738754 0.64352165 43.35442551 -1.28125 45.25390625 C-2.13783203 46.09252197 -2.99441406 46.9311377 -3.87695312 47.79516602 C-6.13384095 50.00841159 -6.13384095 50.00841159 -8 53 C-9.98 53.495 -9.98 53.495 -12 54 C-13.3045656 56.99615946 -13.3045656 56.99615946 -14 60 C-13.34 60.33 -12.68 60.66 -12 61 C-11 64 -10 67 -9 70 C-8.34 70.33 -7.68 70.66 -7 71 C-7 71.99 -7 72.98 -7 74 C-11 73 -11 73 -12.625 70.75 C-14.92391479 66.15217042 -16.25217482 62.34491492 -16.625 57.1875 C-16.69976562 56.21167969 -16.77453125 55.23585937 -16.8515625 54.23046875 C-16.90054688 53.49441406 -16.94953125 52.75835937 -17 52 C-15.02 51.505 -15.02 51.505 -13 51 C-8.71 34.17 -4.42 17.34 0 0 Z " fill="#F6A725" transform="translate(93,59)"/>
<path d="M0 0 C2.68229147 1.64140225 5.35055398 3.30609189 8 5 C9.32 5.33 10.64 5.66 12 6 C12 6.66 12 7.32 12 8 C13.32 8.33 14.64 8.66 16 9 C17.03125 9.350625 18.0625 9.70125 19.125 10.0625 C21.81291118 11.1033402 21.81291118 11.1033402 24 11 C24 11.66 24 12.32 24 13 C25.546875 12.7215625 25.546875 12.7215625 27.125 12.4375 C32.32678619 11.85020156 35.61974204 12.07982802 40 15 C40 15.66 40 16.32 40 17 C41.32 17.33 42.64 17.66 44 18 C47 19.33333333 50 20.66666667 53 22 C54.98 22.495 54.98 22.495 57 23 C63.38767367 30.87136315 66.69557291 40.95390602 67 51 C66.01 51.99 65.02 52.98 64 54 C63.45730469 52.90300781 62.91460937 51.80601562 62.35546875 50.67578125 C61.64003906 49.23589844 60.92460938 47.79601562 60.1875 46.3125 C59.47980469 44.88550781 58.77210937 43.45851562 58.04296875 41.98828125 C57.36878906 40.67214844 56.69460937 39.35601562 56 38 C55.56171875 37.05125 55.1234375 36.1025 54.671875 35.125 C52.24752146 32.04357868 49.81231043 31.64364264 46.0625 30.6875 C44.83660156 30.36136719 43.61070313 30.03523438 42.34765625 29.69921875 C38.91739933 28.86369602 38.91739933 28.86369602 35 29 C35 28.34 35 27.68 35 27 C34.21496094 26.80664062 33.42992187 26.61328125 32.62109375 26.4140625 C30.45302942 25.87670177 28.2864068 25.33349819 26.12109375 24.78515625 C23.75272025 24.18935766 21.37773149 23.61978082 19 23.0625 C15.71934929 21.90060287 14.25905034 20.59372446 12 18 C11.34 17.67 10.68 17.34 10 17 C10 16.34 10 15.68 10 15 C9.34 15 8.68 15 8 15 C8 14.34 8 13.68 8 13 C8.66 12.67 9.32 12.34 10 12 C8.02 11.01 6.04 10.02 4 9 C4 8.34 4 7.68 4 7 C2.948125 6.71125 1.89625 6.4225 0.8125 6.125 C-2.22818711 5.22774807 -5.08712344 4.23576581 -8 3 C-8 2.34 -8 1.68 -8 1 C-8.66 1 -9.32 1 -10 1 C-10 0.34 -10 -0.32 -10 -1 C-5.9137482 -2.36208393 -4.03851692 -1.4565143 0 0 Z " fill="#FB9720" transform="translate(65,176)"/>
<path d="M0 0 C4.06176039 2.03088019 5.27840216 3.30038463 7.9375 6.8125 C10.77588886 10.47307899 13.67930528 13.7644513 17 17 C20.82486103 21.25786416 24.4973097 25.58560073 28.0625 30.0625 C28.73152344 30.89910156 29.40054688 31.73570312 30.08984375 32.59765625 C31.2813356 34.09615827 32.46285535 35.60271092 33.62890625 37.12109375 C36.73188279 41.0180434 39.09009778 42.9478781 44 44 C43.67 45.32 43.34 46.64 43 48 C31.78 48 20.56 48 9 48 C8.67 46.68 8.34 45.36 8 44 C8.99 44 9.98 44 11 44 C10.54109375 42.46472656 10.0821875 40.92945313 9.609375 39.34765625 C0 6.95953397 0 6.95953397 0 0 Z " fill="#FC7B12" transform="translate(31,197)"/>
<path d="M0 0 C4.06074154 1.3354522 7.52738849 3.52720088 11.19921875 5.68359375 C11.99972656 6.07289063 12.80023438 6.4621875 13.625 6.86328125 C14.285 6.53328125 14.945 6.20328125 15.625 5.86328125 C16.8625 6.33765625 18.1 6.81203125 19.375 7.30078125 C23.36917341 9.06142756 23.36917341 9.06142756 26.8125 8.80078125 C30.57960249 8.88449464 31.80287163 10.46447213 34.625 12.86328125 C37.80421787 14.11885012 37.80421787 14.11885012 40.625 14.86328125 C40.625 15.52328125 40.625 16.18328125 40.625 16.86328125 C44.255 17.19328125 47.885 17.52328125 51.625 17.86328125 C51.625 18.52328125 51.625 19.18328125 51.625 19.86328125 C53.171875 19.86328125 54.71875 19.86328125 56.3125 19.86328125 C59.5353797 20.16042619 61.08859864 20.32687989 63.40234375 22.640625 C66.625 27.80621603 66.625 27.80621603 66.625 30.86328125 C60.44251175 29.58752971 54.51387714 28.16362388 48.625 25.86328125 C48.13 24.37828125 48.13 24.37828125 47.625 22.86328125 C42.91404553 22.26188281 38.32470638 21.80579058 33.57421875 21.79296875 C23.58291135 21.72353906 16.23784209 21.4552021 7.90234375 15.26171875 C7.15082031 14.80023438 6.39929688 14.33875 5.625 13.86328125 C4.305 14.19328125 2.985 14.52328125 1.625 14.86328125 C-1.76978103 14.41578739 -5.02783041 13.61199024 -8.375 12.86328125 C-8.375 12.20328125 -8.375 11.54328125 -8.375 10.86328125 C-9.365 10.53328125 -10.355 10.20328125 -11.375 9.86328125 C-9.14025609 5.39379343 -5.60954221 -0.32291773 0 0 Z " fill="#FFB62A" transform="translate(46.375,154.13671875)"/>
<path d="M0 0 C2 1 2 1 2.91015625 3.625 C3.26980469 4.73875 3.62945312 5.8525 4 7 C5.10878728 9.35116338 6.25672308 11.68415365 7.4375 14 C8.03433594 15.175625 8.63117187 16.35125 9.24609375 17.5625 C10.39635316 19.81690597 11.55493632 22.06708843 12.72265625 24.3125 C14 27 14 27 14 29 C14.85980469 28.91621094 15.71960938 28.83242187 16.60546875 28.74609375 C24.88159424 28.03310148 32.74369108 28.10853807 41 29 C41 29.33 41 29.66 41 30 C40.31301025 29.89937256 39.62602051 29.79874512 38.91821289 29.69506836 C28.95684132 28.49375915 18.90715517 27.71187222 10.26757812 33.50097656 C2.42067363 40.27669619 -4.43922866 47.98890772 -11 56 C-12.18513712 51.25945151 -11.44995695 48.89602674 -10.25 44.1875 C-8.87840582 38.64005915 -7.58253027 33.11111526 -6.5 27.5 C-2.72797927 8.18393782 -2.72797927 8.18393782 0 0 Z " fill="#FF8E15" transform="translate(30,123)"/>
<path d="M0 0 C0.33 0 0.66 0 1 0 C0.27114792 8.89199539 -1.14403673 17.65087144 -2.58398438 26.45263672 C-3.00344026 29.02106554 -3.41604807 31.59053438 -3.828125 34.16015625 C-4.09109375 35.77792969 -4.3540625 37.39570313 -4.625 39.0625 C-4.86476562 40.53847656 -5.10453125 42.01445312 -5.3515625 43.53515625 C-6 47 -6 47 -7 49 C-6.01 49 -5.02 49 -4 49 C-4 49.99 -4 50.98 -4 52 C-7.54988771 52.88747193 -10.14180778 53.10545467 -13.75 53.0625 C-14.73484375 53.05347656 -15.7196875 53.04445312 -16.734375 53.03515625 C-17.48203125 53.02355469 -18.2296875 53.01195312 -19 53 C-19 53.66 -19 54.32 -19 55 C-18.01 55 -17.02 55 -16 55 C-16 55.99 -16 56.98 -16 58 C-19.26123067 59.63061534 -22.60526263 59.13014319 -26.21875 59.1328125 C-27.03243042 59.13376923 -27.84611084 59.13472595 -28.68444824 59.13571167 C-30.40600665 59.13639263 -32.12756761 59.13454417 -33.84912109 59.13037109 C-36.48931629 59.12502165 -39.12934136 59.13031889 -41.76953125 59.13671875 C-43.44010454 59.13605795 -45.11067773 59.13477676 -46.78125 59.1328125 C-48.30814453 59.13168457 -49.83503906 59.13055664 -51.40820312 59.12939453 C-55 59 -55 59 -57 58 C-56.67 57.01 -56.34 56.02 -56 55 C-55.34 55 -54.68 55 -54 55 C-54.680625 53.741875 -55.36125 52.48375 -56.0625 51.1875 C-58 47 -58 47 -57 44 C-56.34 44 -55.68 44 -55 44 C-53.74335022 46.90600261 -53 48.79604584 -53 52 C-52.24904053 51.96970703 -51.49808105 51.93941406 -50.72436523 51.90820312 C-47.29546606 51.77069811 -43.86648565 51.63533063 -40.4375 51.5 C-39.25607422 51.45230469 -38.07464844 51.40460938 -36.85742188 51.35546875 C-35.70693359 51.31035156 -34.55644531 51.26523438 -33.37109375 51.21875 C-32.25976074 51.17234375 -31.14842773 51.1259375 -30.00341797 51.078125 C-27 51 -27 51 -22.84765625 51.21875 C-21.43806641 51.11046875 -21.43806641 51.11046875 -20 51 C-16.97240798 46.96321064 -16.00589535 44.28216108 -14.625 39.5 C-12.84967706 33.60867536 -10.84981025 28.00886802 -8.40234375 22.37109375 C-5.34313066 15.01705226 -2.71711015 7.48575593 0 0 Z " fill="#D94B00" transform="translate(188,186)"/>
<path d="M0 0 C-1.43229167 1.66015625 -2.86458333 3.3203125 -4.296875 4.98046875 C-6.08283547 7.02648406 -6.08283547 7.02648406 -7.72119141 9.54101562 C-10.54304025 12.58597615 -12.0943868 12.83461501 -16.1640625 13.36328125 C-17.97197266 13.60981445 -17.97197266 13.60981445 -19.81640625 13.86132812 C-21.70166016 14.0846582 -21.70166016 14.0846582 -23.625 14.3125 C-24.85863281 14.48072266 -26.09226563 14.64894531 -27.36328125 14.82226562 C-46.29938653 17.28738029 -46.29938653 17.28738029 -50.5078125 14.1015625 C-51.04148437 13.28429688 -51.57515625 12.46703125 -52.125 11.625 C-52.96417969 10.40683594 -52.96417969 10.40683594 -53.8203125 9.1640625 C-55 7 -55 7 -55 5 C-48.61437676 4.28161261 -42.22807076 3.56975489 -35.84106445 2.86376953 C-33.67127143 2.62302252 -31.5016707 2.38053543 -29.33227539 2.13623047 C-26.20248348 1.78408396 -23.07203873 1.43833392 -19.94140625 1.09375 C-18.98166397 0.9843811 -18.02192169 0.87501221 -17.03309631 0.7623291 C-11.31636783 0.14048657 -5.75067051 -0.10301246 0 0 Z " fill="#FF7010" transform="translate(165,41)"/>
<path d="M0 0 C1.32 0 2.64 0 4 0 C4 0.66 4 1.32 4 2 C4.66 2 5.32 2 6 2 C6 2.99 6 3.98 6 5 C7.11375 5.226875 8.2275 5.45375 9.375 5.6875 C10.57125 6.120625 11.7675 6.55375 13 7 C13.31066406 7.80824219 13.62132813 8.61648437 13.94140625 9.44921875 C14.76136862 12.13306603 14.76136862 12.13306603 17.06640625 13.2578125 C17.89011719 13.54398438 18.71382812 13.83015625 19.5625 14.125 C20.44808594 14.44210938 21.33367187 14.75921875 22.24609375 15.0859375 C23.15488281 15.38757813 24.06367188 15.68921875 25 16 C25.87785156 16.30164063 26.75570312 16.60328125 27.66015625 16.9140625 C29.76701749 17.6285923 31.88270667 18.31700215 34 19 C34 19.66 34 20.32 34 21 C34.928125 20.938125 35.85625 20.87625 36.8125 20.8125 C40 21 40 21 43 24 C42.67 25.32 42.34 26.64 42 28 C38.67124384 29.47944718 35.41442989 30.76274872 32 32 C26.05416847 34.28336592 26.05416847 34.28336592 21 38 C20.56429687 37.17757812 20.12859375 36.35515625 19.6796875 35.5078125 C15.32636634 27.34769101 10.75499226 19.39998764 5.84765625 11.5625 C5.11417969 10.386875 4.38070312 9.21125 3.625 8 C2.59246094 6.3603125 2.59246094 6.3603125 1.5390625 4.6875 C0 2 0 2 0 0 Z " fill="#FEDA3F" transform="translate(108,175)"/>
<path d="M0 0 C3.69290026 1.30642006 6.32292832 2.85802491 9.3125 5.375 C13.74665026 9.01615766 18.27711967 12.50673215 22.875 15.9375 C23.90633057 16.70707031 23.90633057 16.70707031 24.95849609 17.4921875 C25.64121582 18.00136719 26.32393555 18.51054687 27.02734375 19.03515625 C30.50899834 21.63355924 33.97427407 24.25214818 37.4375 26.875 C38.39914063 27.57367188 39.36078125 28.27234375 40.3515625 28.9921875 C43 31 43 31 45.2109375 33.1328125 C47.52239743 35.1864888 48.98164329 36.286742 52 37 C57.40152261 35.49399927 62.08253636 32.64685543 67 30 C70.63506748 28.29970464 74.3122281 26.70708377 78 25.125 C79.32596191 24.53609985 79.32596191 24.53609985 80.67871094 23.93530273 C85.47790206 21.85422546 89.72511236 20.44435195 95 20 C90.04918377 25.33164825 84.63093639 28.19028119 78 31 C76.51273861 31.81879914 75.03391363 32.65305229 73.5625 33.5 C69.50978168 35.80205429 65.38882238 37.41714603 61 39 C59.96875 39.556875 58.9375 40.11375 57.875 40.6875 C54.45242254 42.24998102 52.71532546 42.68240672 49 42 C45.5 39.3125 45.5 39.3125 42 36 C38.15646068 32.48969068 38.15646068 32.48969068 33.6171875 30.12109375 C30.53235585 28.79968079 28.6795525 27.11898693 26.25 24.8125 C21.02252978 19.9728243 15.57254563 15.58263956 9.80078125 11.41015625 C5.94297582 8.60772088 2.66025948 5.99038922 0 2 C0 1.34 0 0.68 0 0 Z " fill="#ED7210" transform="translate(94,131)"/>
<path d="M0 0 C4.35147576 2.17573788 6.17205424 4.22506542 9.25 7.9375 C10.14203125 8.99839844 11.0340625 10.05929688 11.953125 11.15234375 C14 14 14 14 14 17 C12.68965012 18.35592727 11.352378 19.68598733 10 21 C8.86554187 22.717299 7.78122359 24.46879562 6.75 26.25 C6.22921875 27.14203125 5.7084375 28.0340625 5.171875 28.953125 C4.78515625 29.62859375 4.3984375 30.3040625 4 31 C-0.89392335 29.56946856 -4.98032482 27.44547039 -9.375 24.875 C-10.62023437 24.15054688 -11.86546875 23.42609375 -13.1484375 22.6796875 C-14.08945313 22.12539062 -15.03046875 21.57109375 -16 21 C-16 17 -16 17 -15 15 C-9.06 15.99 -9.06 15.99 -3 17 C-2.87625 15.68 -2.7525 14.36 -2.625 13 C-2.13814846 8.54777796 -1.17941597 4.32452524 0 0 Z " fill="#FD930D" transform="translate(17,180)"/>
<path d="M0 0 C4.75 1.875 4.75 1.875 7 3 C7 3.66 7 4.32 7 5 C8.98 5.66 10.96 6.32 13 7 C13 7.66 13 8.32 13 9 C13.99 9.33 14.98 9.66 16 10 C16.99 10.99 17.98 11.98 19 13 C19.721875 13.680625 20.44375 14.36125 21.1875 15.0625 C23 17 23 17 23 19 C23.99 19.0928125 23.99 19.0928125 25 19.1875 C29.23670814 20.33494179 32.41709018 22.51018131 36 25 C36 25.66 36 26.32 36 27 C37.27875 27.12375 38.5575 27.2475 39.875 27.375 C43.32667834 27.74289048 46.62019724 28.34097052 50 29.125 C54.85318595 30.16226439 59.08236437 29.68090339 64 29 C65.485 29.495 65.485 29.495 67 30 C67 30.99 67 31.98 67 33 C61.73911022 35.6750287 56.596223 38.13459233 51 40 C50.62875 39.195625 50.2575 38.39125 49.875 37.5625 C48.20193151 34.68332557 48.20193151 34.68332557 44.875 34.3125 C43.451875 34.1578125 43.451875 34.1578125 42 34 C41.67 33.34 41.34 32.68 41 32 C38.33620666 31.32194351 35.66880332 30.65806109 33 30 C23.73707865 26.73707865 23.73707865 26.73707865 21 24 C21 22.68 21 21.36 21 20 C18.69 19.34 16.38 18.68 14 18 C14 17.01 14 16.02 14 15 C13.34 15 12.68 15 12 15 C12 14.34 12 13.68 12 13 C10.35 13 8.7 13 7 13 C4.98046875 10.41015625 4.98046875 10.41015625 3.1875 7.0625 C2.58292969 5.96035156 1.97835937 4.85820312 1.35546875 3.72265625 C0 1 0 1 0 0 Z " fill="#FECD36" transform="translate(100,162)"/>
<path d="M0 0 C0.33 0.66 0.66 1.32 1 2 C0.34 2 -0.32 2 -1 2 C-1 3.65 -1 5.3 -1 7 C-0.01 7.33 0.98 7.66 2 8 C2.33 9.32 2.66 10.64 3 12 C3.66 12 4.32 12 5 12 C5.99 12.99 6.98 13.98 8 15 C10.31029085 15.74259349 12.645752 16.411438 15 17 C15.99 17.33 16.98 17.66 18 18 C16.34488514 22.50996905 14.16241284 26.62633857 11.8125 30.8125 C10.70841797 32.83310547 10.70841797 32.83310547 9.58203125 34.89453125 C7 38 7 38 3.19921875 38.44921875 C2.14347656 38.30097656 1.08773437 38.15273437 0 38 C0 37.67 0 37.34 0 37 C1.65 37 3.3 37 5 37 C4.49210938 35.99582031 3.98421875 34.99164063 3.4609375 33.95703125 C-0.8581525 25.37546854 -5.04255861 16.75434005 -9 8 C-7.37660195 6.29115995 -5.70680947 4.62553283 -4 3 C-3.34 3 -2.68 3 -2 3 C-2 2.34 -2 1.68 -2 1 C-1.34 0.67 -0.68 0.34 0 0 Z " fill="#F56603" transform="translate(251,113)"/>
<path d="M0 0 C8.49533599 1.10391372 16.65475878 7.0331197 23.3125 12.1875 C26.58652256 14.68463585 29.87022961 16.62963453 33.484375 18.58203125 C36.55620686 20.31351411 39.53125362 22.15954764 42.5 24.0625 C43.5209375 24.71347656 44.541875 25.36445312 45.59375 26.03515625 C48 28 48 28 49 32 C42.62247767 30.11369058 36.29902887 28.13354204 30 26 C30.66 25.34 31.32 24.68 32 24 C31.14535156 23.69707031 30.29070312 23.39414063 29.41015625 23.08203125 C28.30542969 22.66308594 27.20070312 22.24414062 26.0625 21.8125 C24.40927734 21.20341797 24.40927734 21.20341797 22.72265625 20.58203125 C20 19 20 19 19.12109375 16.32421875 C19.08113281 15.55722656 19.04117188 14.79023437 19 14 C17.618125 13.896875 16.23625 13.79375 14.8125 13.6875 C10.38673757 13.05524822 8.54757497 12.43262284 5 10 C3.68 9.67 2.36 9.34 1 9 C0.67 8.01 0.34 7.02 0 6 C-0.99 5.34 -1.98 4.68 -3 4 C-2.01 2.68 -1.02 1.36 0 0 Z " fill="#FFD337" transform="translate(163,42)"/>
<path d="M0 0 C0.66 0 1.32 0 2 0 C2.268125 0.763125 2.53625 1.52625 2.8125 2.3125 C3.93952095 5.30051506 3.93952095 5.30051506 7 8 C8.36176581 9.98075027 9.69593116 11.98079663 11 14 C12.79819816 17.4260261 12.79819816 17.4260261 17 18 C20.7561509 18.26708522 24.51204838 18.44395418 28.2734375 18.62109375 C31.81127717 18.9808112 34.69100311 19.73479531 38 21 C37.67 22.32 37.34 23.64 37 25 C25.78 25 14.56 25 3 25 C2.67 23.68 2.34 22.36 2 21 C2.99 21 3.98 21 5 21 C4.6390625 19.81921875 4.278125 18.6384375 3.90625 17.421875 C3.4421875 15.88015625 2.978125 14.3384375 2.5 12.75 C2.0359375 11.21859375 1.571875 9.6871875 1.09375 8.109375 C0 4 0 4 0 0 Z " fill="#F35F0A" transform="translate(37,220)"/>
<path d="M0 0 C0.66 0 1.32 0 2 0 C3.25664978 2.90600261 4 4.79604584 4 8 C4.75095947 7.96970703 5.50191895 7.93941406 6.27563477 7.90820312 C9.70453394 7.77069811 13.13351435 7.63533063 16.5625 7.5 C17.74392578 7.45230469 18.92535156 7.40460938 20.14257812 7.35546875 C24.83994958 7.1712581 29.51319724 6.99639071 34.21484375 7.03125 C36.95744183 7.2034251 36.95744183 7.2034251 39 6 C38.67 7.65 38.34 9.3 38 11 C38.99 11 39.98 11 41 11 C41 11.99 41 12.98 41 14 C37.73876933 15.63061534 34.39473737 15.13014319 30.78125 15.1328125 C29.96756958 15.13376923 29.15388916 15.13472595 28.31555176 15.13571167 C26.59399335 15.13639263 24.87243239 15.13454417 23.15087891 15.13037109 C20.51068371 15.12502165 17.87065864 15.13031889 15.23046875 15.13671875 C13.55989546 15.13605795 11.88932227 15.13477676 10.21875 15.1328125 C8.69185547 15.13168457 7.16496094 15.13055664 5.59179688 15.12939453 C2 15 2 15 0 14 C0.33 13.01 0.66 12.02 1 11 C1.66 11 2.32 11 3 11 C2.319375 9.741875 1.63875 8.48375 0.9375 7.1875 C-1 3 -1 3 0 0 Z " fill="#F48A11" transform="translate(131,230)"/>
<path d="M0 0 C1.32 0.99 2.64 1.98 4 3 C6.80796039 3.65206627 9.58430219 4.00283991 12.44140625 4.375 C15 5 15 5 18 8 C15.525 7.505 15.525 7.505 13 7 C13 7.66 13 8.32 13 9 C14.98 9.66 16.96 10.32 19 11 C17.86634892 15.53460431 16.35806626 16.90024653 13 20 C12.01 19.34 11.02 18.68 10 18 C8.80375 17.690625 7.6075 17.38125 6.375 17.0625 C4.704375 16.5365625 4.704375 16.5365625 3 16 C2.67 15.01 2.34 14.02 2 13 C1.34 13 0.68 13 0 13 C-0.33 11.68 -0.66 10.36 -1 9 C-2.32 8.67 -3.64 8.34 -5 8 C-4.67 6.35 -4.34 4.7 -4 3 C-3.34 3 -2.68 3 -2 3 C-2 2.34 -2 1.68 -2 1 C-1.34 0.67 -0.68 0.34 0 0 Z " fill="#FB7E08" transform="translate(254,112)"/>
<path d="M0 0 C1 2 1 2 0.11962891 4.67382812 C-0.34008301 5.78177734 -0.79979492 6.88972656 -1.2734375 8.03125 C-1.7684375 9.23394531 -2.2634375 10.43664062 -2.7734375 11.67578125 C-3.56621094 13.56876953 -3.56621094 13.56876953 -4.375 15.5 C-4.89578125 16.76199219 -5.4165625 18.02398437 -5.953125 19.32421875 C-9.74606949 28.49213898 -9.74606949 28.49213898 -11 31 C-10.34 31 -9.68 31 -9 31 C-9 31.99 -9 32.98 -9 34 C-12.42232972 35.14077657 -15.08673217 35.09815117 -18.6875 35.0625 C-20.45673828 35.04896484 -20.45673828 35.04896484 -22.26171875 35.03515625 C-23.16535156 35.02355469 -24.06898437 35.01195312 -25 35 C-23.46954411 31.93908822 -22.06646663 29.5791891 -20.05859375 26.875 C-19.47867676 26.0910083 -18.89875977 25.3070166 -18.30126953 24.49926758 C-17.68622559 23.67450928 -17.07118164 22.84975098 -16.4375 22 C-15.81214355 21.15655029 -15.18678711 20.31310059 -14.54248047 19.4440918 C-9.71904166 12.94479651 -4.87471529 6.46093217 0 0 Z " fill="#EE5601" transform="translate(99,205)"/>
<path d="M0 0 C0.66 0.33 1.32 0.66 2 1 C1.67 2.98 1.34 4.96 1 7 C0.34 7 -0.32 7 -1 7 C-0.98952637 7.99330322 -0.97905273 8.98660645 -0.96826172 10.01000977 C-0.92658715 14.52748059 -0.90063691 19.04491087 -0.875 23.5625 C-0.85824219 25.12548828 -0.84148438 26.68847656 -0.82421875 28.29882812 C-0.81777344 29.81025391 -0.81132812 31.32167969 -0.8046875 32.87890625 C-0.79421387 34.2666626 -0.78374023 35.65441895 -0.77294922 37.08422852 C-1.14887375 43.56751185 -2.30264357 48.00404328 -7.125 52.4375 C-8.21167969 53.45650391 -8.21167969 53.45650391 -9.3203125 54.49609375 C-9.87460937 54.99238281 -10.42890625 55.48867187 -11 56 C-12.18513712 51.25945151 -11.44995695 48.89602674 -10.25 44.1875 C-8.87840582 38.64005915 -7.58253027 33.11111526 -6.5 27.5 C-2.72797927 8.18393782 -2.72797927 8.18393782 0 0 Z " fill="#E36A15" transform="translate(30,123)"/>
<path d="M0 0 C1.65 0.33 3.3 0.66 5 1 C5 1.99 5 2.98 5 4 C6.11375 4.12375 7.2275 4.2475 8.375 4.375 C12 5 12 5 14 7 C16.98611089 7.7263513 19.98649762 8.39729952 23 9 C23.33 10.32 23.66 11.64 24 13 C26.99379196 14.59122812 26.99379196 14.59122812 30.5625 15.75 C31.76003906 16.17796875 32.95757812 16.6059375 34.19140625 17.046875 C35.11824219 17.36140625 36.04507813 17.6759375 37 18 C36.67 18.66 36.34 19.32 36 20 C30.3018032 19.47449963 25.5624959 18.29436333 20.25 16.1875 C9.4336178 11.29818011 9.4336178 11.29818011 -2 9 C-2.33 9.66 -2.66 10.32 -3 11 C-3.66 11 -4.32 11 -5 11 C-5 5.15334664 -3.83461327 4.12220927 0 0 Z " fill="#FFD83B" transform="translate(159,47)"/>
<path d="M0 0 C3.26649474 3.17575878 6.15774261 6.44717827 9 10 C9.763125 10.763125 10.52625 11.52625 11.3125 12.3125 C19.74210751 20.74210751 27.1984467 30.22276713 34 40 C30.625 39.75 30.625 39.75 27 39 C26.34 37.68 25.68 36.36 25 35 C23.68 35 22.36 35 21 35 C21 34.34 21 33.68 21 33 C19.515 32.505 19.515 32.505 18 32 C16.7260556 29.77876361 15.45831986 27.55290243 14.26171875 25.2890625 C12.04940892 21.27539822 9.22476148 18.22476148 6 15 C5.375 12.5625 5.375 12.5625 5 10 C4.67 8.68 4.34 7.36 4 6 C3.01 6 2.02 6 1 6 C0.67 4.02 0.34 2.04 0 0 Z " fill="#FE8A19" transform="translate(34,199)"/>
<path d="M0 0 C0 0.66 0 1.32 0 2 C-2.31 2.99 -4.62 3.98 -7 5 C-6.34 5.33 -5.68 5.66 -5 6 C-5 5.34 -5 4.68 -5 4 C-2.69 3.34 -0.38 2.68 2 2 C0.07289294 13.52164009 0.07289294 13.52164009 -2 19 C-2.495 17.515 -2.495 17.515 -3 16 C-3.66 16 -4.32 16 -5 16 C-5.495 14.515 -5.495 14.515 -6 13 C-5.01 12.34 -4.02 11.68 -3 11 C-2.67 10.01 -2.34 9.02 -2 8 C-4.67353642 8.27280984 -7.33825969 8.62937793 -10 9 C-11.08023438 9.14953125 -12.16046875 9.2990625 -13.2734375 9.453125 C-22.58497014 11.0017381 -30.14888111 14.07444056 -38.515625 18.2578125 C-43.32820043 20.66410022 -46.62754218 21.29304315 -52 21 C-52.66 20.34 -53.32 19.68 -54 19 C-53.25878906 18.9484375 -52.51757812 18.896875 -51.75390625 18.84375 C-41.41407581 17.73003509 -33.17739241 13.70361883 -24 9 C-21.10599107 7.51726703 -18.21022915 6.03794925 -15.3125 4.5625 C-14.05050781 3.90378906 -12.78851563 3.24507812 -11.48828125 2.56640625 C-7.62038949 0.8295366 -4.23182827 0 0 0 Z " fill="#F69015" transform="translate(196,156)"/>
<path d="M0 0 C-5.875 6.875 -5.875 6.875 -7 8 C-10.71980324 7.62042824 -14.15000027 6.95749992 -17.75 5.9375 C-22.99112017 4.78137055 -30.00124702 3.50062351 -35 6 C-34.01 6.66 -33.02 7.32 -32 8 C-37.94 7.67 -43.88 7.34 -50 7 C-50.33 7.99 -50.66 8.98 -51 10 C-52.32 9.01 -53.64 8.02 -55 7 C-55 6.34 -55 5.68 -55 5 C-48.61437676 4.28161261 -42.22807076 3.56975489 -35.84106445 2.86376953 C-33.67127143 2.62302252 -31.5016707 2.38053543 -29.33227539 2.13623047 C-26.20248348 1.78408396 -23.07203873 1.43833392 -19.94140625 1.09375 C-18.98166397 0.9843811 -18.02192169 0.87501221 -17.03309631 0.7623291 C-11.31636783 0.14048657 -5.75067051 -0.10301246 0 0 Z " fill="#DC590A" transform="translate(165,41)"/>
<path d="M0 0 C0.99 0.33 1.98 0.66 3 1 C3 1.66 3 2.32 3 3 C1.66666667 4.33333333 0.33333333 5.66666667 -1 7 C-2.13445813 8.717299 -3.21877641 10.46879562 -4.25 12.25 C-4.77078125 13.14203125 -5.2915625 14.0340625 -5.828125 14.953125 C-6.21484375 15.62859375 -6.6015625 16.3040625 -7 17 C-11.89392335 15.56946856 -15.98032482 13.44547039 -20.375 10.875 C-21.62023437 10.15054688 -22.86546875 9.42609375 -24.1484375 8.6796875 C-25.08945312 8.12539062 -26.03046875 7.57109375 -27 7 C-27 3 -27 3 -26 1 C-20.06 1.99 -20.06 1.99 -14 3 C-14.061875 4.11375 -14.12375 5.2275 -14.1875 6.375 C-14.125625 7.57125 -14.06375 8.7675 -14 10 C-11.04622502 12.36980013 -11.04622502 12.36980013 -7 12 C-6.9175 11.071875 -6.835 10.14375 -6.75 9.1875 C-6 6 -6 6 -2 3 C-1.34 3 -0.68 3 0 3 C0 2.01 0 1.02 0 0 Z " fill="#D55607" transform="translate(28,194)"/>
<path d="M0 0 C9.45085008 1.2125619 18.55061405 8.32427737 26 14 C21.67389029 15.08152743 21.07971606 14.91331154 17.25 13.1875 C11.98341091 10.93928102 6.79258109 9 1 9 C0.67 8.01 0.34 7.02 0 6 C-0.99 5.34 -1.98 4.68 -3 4 C-2.01 2.68 -1.02 1.36 0 0 Z " fill="#FEC429" transform="translate(163,42)"/>
<path d="M0 0 C0.66 0.66 1.32 1.32 2 2 C5.30319897 2.37369429 5.30319897 2.37369429 9.1953125 2.4140625 C10.63261719 2.45273438 12.06992188 2.49140625 13.55078125 2.53125 C15.06027344 2.5621875 16.56976563 2.593125 18.125 2.625 C19.64222656 2.66367188 21.15945312 2.70234375 22.72265625 2.7421875 C26.48164704 2.83675331 30.24062885 2.92229833 34 3 C34.33 2.01 34.66 1.02 35 0 C35 0.66 35 1.32 35 2 C35.99 2 36.98 2 38 2 C38 2.99 38 3.98 38 5 C34.73876933 6.63061534 31.39473737 6.13014319 27.78125 6.1328125 C26.96756958 6.13376923 26.15388916 6.13472595 25.31555176 6.13571167 C23.59399335 6.13639263 21.87243239 6.13454417 20.15087891 6.13037109 C17.51068371 6.12502165 14.87065864 6.13031889 12.23046875 6.13671875 C10.55989546 6.13605795 8.88932227 6.13477676 7.21875 6.1328125 C5.69185547 6.13168457 4.16496094 6.13055664 2.59179688 6.12939453 C-1 6 -1 6 -3 5 C-2.67 4.01 -2.34 3.02 -2 2 C-1.34 2 -0.68 2 0 2 C0 1.34 0 0.68 0 0 Z " fill="#A72900" transform="translate(134,239)"/>
<path d="M0 0 C0.33 0.99 0.66 1.98 1 3 C1.86278564 2.96970703 2.72557129 2.93941406 3.61450195 2.90820312 C7.51381599 2.7715971 11.41315742 2.63578887 15.3125 2.5 C17.34954102 2.42845703 17.34954102 2.42845703 19.42773438 2.35546875 C20.72646484 2.31035156 22.02519531 2.26523438 23.36328125 2.21875 C24.56251221 2.17685547 25.76174316 2.13496094 26.99731445 2.09179688 C28.9975091 2.03064774 30.99887086 2 33 2 C32.67 3.32 32.34 4.64 32 6 C20.78 6 9.56 6 -2 6 C-2.33 4.68 -2.66 3.36 -3 2 C-2.01 2 -1.02 2 0 2 C0 1.34 0 0.68 0 0 Z " fill="#BA2F01" transform="translate(42,239)"/>
<path d="M0 0 C0.66 0.33 1.32 0.66 2 1 C1.67 2.98 1.34 4.96 1 7 C0.34 7 -0.32 7 -1 7 C-0.98952637 7.99330322 -0.97905273 8.98660645 -0.96826172 10.01000977 C-0.92658715 14.52748059 -0.90063691 19.04491087 -0.875 23.5625 C-0.85824219 25.12548828 -0.84148438 26.68847656 -0.82421875 28.29882812 C-0.81777344 29.81025391 -0.81132812 31.32167969 -0.8046875 32.87890625 C-0.79421387 34.2666626 -0.78374023 35.65441895 -0.77294922 37.08422852 C-1.00043118 41.00743627 -1.77175667 44.27914522 -3 48 C-3.33 48 -3.66 48 -4 48 C-4.82555811 13.09794343 -4.82555811 13.09794343 0 0 Z " fill="#EC7615" transform="translate(30,123)"/>
<path d="M0 0 C0.33 0 0.66 0 1 0 C1.029161 5.33332175 1.04685304 10.66662282 1.0625 16 C1.07087891 17.50691406 1.07925781 19.01382813 1.08789062 20.56640625 C1.09111328 22.02949219 1.09433594 23.49257812 1.09765625 25 C1.10289307 26.340625 1.10812988 27.68125 1.11352539 29.0625 C0.99614282 33.13378181 0.75295408 36.99431666 0 41 C-0.99 41.66 -1.98 42.32 -3 43 C-2.67 30.13 -2.34 17.26 -2 4 C-1.34 4 -0.68 4 0 4 C0 2.68 0 1.36 0 0 Z " fill="#FF8416" transform="translate(31,126)"/>
<path d="M0 0 C3.93218752 1.36437111 6.68881716 3.1505613 9.875 5.8125 C12.88522978 8.30077664 15.81848064 10.55404843 19.0625 12.75 C22 15 22 15 23 19 C25.52438657 21.66961989 25.52438657 21.66961989 28.5625 24.25 C29.57441406 25.14203125 30.58632812 26.0340625 31.62890625 26.953125 C32.41136719 27.62859375 33.19382813 28.3040625 34 29 C30.00456863 29 29.23282709 27.65470385 26.375 24.9375 C21.10607054 20.05148692 15.62258824 15.61881601 9.80078125 11.41015625 C5.94297582 8.60772088 2.66025948 5.99038922 0 2 C0 1.34 0 0.68 0 0 Z " fill="#F08116" transform="translate(94,131)"/>
<path d="M0 0 C9.57142857 1 9.57142857 1 14 2 C14 2.66 14 3.32 14 4 C19.445 4.495 19.445 4.495 25 5 C25 5.33 25 5.66 25 6 C9.79910867 8.66849503 9.79910867 8.66849503 2 8 C1.01 6.68 0.02 5.36 -1 4 C-0.67 2.68 -0.34 1.36 0 0 Z " fill="#FD891A" transform="translate(115,49)"/>
<path d="M0 0 C2.20540114 2.20540114 3.2400727 4.21394742 4.625 7 C5.07101563 7.886875 5.51703125 8.77375 5.9765625 9.6875 C7 12 7 12 7 14 C8.28970703 13.87431641 8.28970703 13.87431641 9.60546875 13.74609375 C17.88159424 13.03310148 25.74369108 13.10853807 34 14 C34 14.33 34 14.66 34 15 C33.21351074 15.00410889 32.42702148 15.00821777 31.61669922 15.01245117 C28.03538122 15.0454502 24.45574987 15.11610468 20.875 15.1875 C19.6375 15.19330078 18.4 15.19910156 17.125 15.20507812 C9.70054059 15.34201851 9.70054059 15.34201851 3.1328125 18.55078125 C2.07707031 19.76314453 2.07707031 19.76314453 1 21 C0.18139406 13.9395238 -0.09112928 7.10808395 0 0 Z " fill="#FFA014" transform="translate(37,138)"/>
<path d="M0 0 C3.85025879 0.60355408 6.86101159 1.76772603 10.3125 3.5625 C11.19550781 4.01753906 12.07851563 4.47257812 12.98828125 4.94140625 C13.65214844 5.29074219 14.31601562 5.64007813 15 6 C15 6.66 15 7.32 15 8 C16.32 8 17.64 8 19 8 C19 7.34 19 6.68 19 6 C17.5459375 5.566875 17.5459375 5.566875 16.0625 5.125 C13 4 13 4 12 2 C14.31 2.33 16.62 2.66 19 3 C19 3.66 19 4.32 19 5 C20.65 5 22.3 5 24 5 C22.59754024 9.32425093 21.90270266 10.072973 18 13 C17.01 12.34 16.02 11.68 15 11 C13.80375 10.690625 12.6075 10.38125 11.375 10.0625 C10.26125 9.711875 9.1475 9.36125 8 9 C7.67 8.01 7.34 7.02 7 6 C6.34 6 5.68 6 5 6 C4.67 4.68 4.34 3.36 4 2 C2.68 1.67 1.36 1.34 0 1 C0 0.67 0 0.34 0 0 Z " fill="#F87305" transform="translate(249,119)"/>
<path d="M0 0 C8.66240911 1.39716276 19.02875425 3.2202958 25 10 C19.91464209 11.27133948 16.62543599 9.77730983 11.875 8.0625 C6.55454115 5.90926825 6.55454115 5.90926825 1 5 C0.67 5.66 0.34 6.32 0 7 C-0.66 7 -1.32 7 -2 7 C-2 2 -2 2 0 0 Z " fill="#FFE042" transform="translate(156,51)"/>
<path d="M0 0 C4.71965366 1.53388744 9.3602018 3.24007655 14 5 C12.02 8.63 10.04 12.26 8 16 C5.69 16 3.38 16 1 16 C1 15.67 1 15.34 1 15 C2.65 15 4.3 15 6 15 C5.566875 14.16855469 5.13375 13.33710938 4.6875 12.48046875 C3.8521875 10.85044922 3.8521875 10.85044922 3 9.1875 C2.443125 8.10855469 1.88625 7.02960938 1.3125 5.91796875 C0 3 0 3 0 0 Z " fill="#E05401" transform="translate(250,135)"/>
<path d="M0 0 C6.95734724 -0.24396986 13.47786913 0.6740848 20.3125 1.8125 C21.39595703 1.97814453 22.47941406 2.14378906 23.59570312 2.31445312 C24.63275391 2.48525391 25.66980469 2.65605469 26.73828125 2.83203125 C27.67712158 2.98389893 28.61596191 3.1357666 29.58325195 3.29223633 C32 4 32 4 35 7 C32.04160645 7.02689449 29.08345573 7.04678741 26.125 7.0625 C23.65386719 7.07990234 23.65386719 7.07990234 21.1328125 7.09765625 C17 7 17 7 15 6 C15 5.34 15 4.68 15 4 C12.958125 3.814375 12.958125 3.814375 10.875 3.625 C6.90761531 3.11636094 3.70153352 2.42366674 0 1 C0 0.67 0 0.34 0 0 Z " fill="#FF8016" transform="translate(114,47)"/>
<path d="M0 0 C4.53299987 3.27383324 8.7670831 6.64157679 12.875 10.4375 C16.22395438 13.51254298 19.6069325 16.20655444 23.375 18.75 C26.96774724 21.1787419 29.41234286 23.4881796 32 27 C33.96862207 28.70361525 35.96256346 30.37931184 38 32 C33.68560893 32 31.97398433 29.90159858 28.625 27.25 C27.50351563 26.36828125 26.38203125 25.4865625 25.2265625 24.578125 C23.62941406 23.30195313 23.62941406 23.30195313 22 22 C21.07574219 21.28070313 20.15148437 20.56140625 19.19921875 19.8203125 C17 18 17 18 15.1875 15.625 C12.76959651 12.72351582 10.01884926 10.69357666 6.97265625 8.484375 C4.3863632 6.5382535 2.14885753 4.41746472 0 2 C0 1.34 0 0.68 0 0 Z " fill="#F28E1A" transform="translate(104,142)"/>
<path d="M0 0 C0.99 0 1.98 0 3 0 C3 2.64 3 5.28 3 8 C3.99 8 4.98 8 6 8 C6 8.99 6 9.98 6 11 C6.99 11 7.98 11 9 11 C9 11.99 9 12.98 9 14 C5.45011229 14.88747193 2.85819222 15.10545467 -0.75 15.0625 C-1.73484375 15.05347656 -2.7196875 15.04445312 -3.734375 15.03515625 C-4.48203125 15.02355469 -5.2296875 15.01195312 -6 15 C-4.125 9.125 -4.125 9.125 -3 8 C-1.35 8 0.3 8 2 8 C2 6.02 2 4.04 2 2 C1.34 2 0.68 2 0 2 C0 1.34 0 0.68 0 0 Z " fill="#EC4800" transform="translate(175,224)"/>
<path d="M0 0 C1 2 1 2 0.28735352 4.33837891 C-0.09493408 5.29147949 -0.47722168 6.24458008 -0.87109375 7.2265625 C-1.48500977 8.7734375 -1.48500977 8.7734375 -2.11132812 10.3515625 C-2.54896484 11.43179688 -2.98660156 12.51203125 -3.4375 13.625 C-4.0881543 15.25695312 -4.0881543 15.25695312 -4.75195312 16.921875 C-5.82780122 19.61740648 -6.91074465 22.30986459 -8 25 C-8.33 23.68 -8.66 22.36 -9 21 C-10.32 20.34 -11.64 19.68 -13 19 C-11.24013205 15.48026411 -9.38677149 12.65096769 -7.0625 9.5 C-6.02802734 8.09234375 -6.02802734 8.09234375 -4.97265625 6.65625 C-3.32141639 4.43279831 -1.66172169 2.21562892 0 0 Z " fill="#B93D00" transform="translate(99,205)"/>
<path d="M0 0 C4.66673821 2.33336911 6.86531211 4.86791142 10 9 C10 10.32 10 11.64 10 13 C1.25 10.125 1.25 10.125 -1 9 C-1 9.66 -1 10.32 -1 11 C-0.34 11 0.32 11 1 11 C1 11.66 1 12.32 1 13 C1.66 13.33 2.32 13.66 3 14 C1.35 13.67 -0.3 13.34 -2 13 C-2.33 13.99 -2.66 14.98 -3 16 C-2.41224981 10.51433157 -1.42741348 5.32901034 0 0 Z " fill="#E96102" transform="translate(17,180)"/>
<path d="M0 0 C0.33 0 0.66 0 1 0 C0.25209349 8.78575233 -1.12771306 17.42786013 -2.5625 26.125 C-2.79646484 27.5584375 -3.03042969 28.991875 -3.27148438 30.46875 C-3.84492697 33.97962304 -4.42116775 37.49001224 -5 41 C-5.33 41 -5.66 41 -6 41 C-6.33 35.06 -6.66 29.12 -7 23 C-6.34 23.33 -5.68 23.66 -5 24 C-5.1546875 21.6796875 -5.1546875 21.6796875 -5.3125 19.3125 C-5.35869769 12.21653463 -2.84888951 6.3998268 0 0 Z " fill="#AA3900" transform="translate(188,186)"/>
<path d="M0 0 C3.9446398 1.9723199 6.07895312 3.76316427 9 7 C9.33 7.99 9.66 8.98 10 10 C10.66 10 11.32 10 12 10 C12 10.99 12 11.98 12 13 C4.375 11.375 4.375 11.375 1 8 C1 7.34 1 6.68 1 6 C-1.31 6 -3.62 6 -6 6 C-4 4 -2 2 0 0 Z " fill="#E8920E" transform="translate(268,99)"/>
<path d="M0 0 C4.71269031 0.47126903 5.60445495 1.98748995 8.75 5.375 C11.91701423 6.71063611 11.91701423 6.71063611 14.75 7.375 C14.75 7.705 14.75 8.035 14.75 8.375 C9.62850081 7.94097464 5.96451731 7.40418432 1.75 4.375 C1.75 5.035 1.75 5.695 1.75 6.375 C3.07 6.705 4.39 7.035 5.75 7.375 C5.75 8.035 5.75 8.695 5.75 9.375 C8.225 10.365 8.225 10.365 10.75 11.375 C10.75 12.035 10.75 12.695 10.75 13.375 C7.80265643 12.3644822 5.73849898 11.36556326 3.3125 9.375 C0.53437151 7.2067046 -1.87819311 6.31596937 -5.25 5.375 C-4.02227723 0.46410891 -4.02227723 0.46410891 0 0 Z " fill="#FD960E" transform="translate(265.25,104.625)"/>
<path d="M0 0 C4.455 0.99 4.455 0.99 9 2 C8.67 3.32 8.34 4.64 8 6 C7.34 6 6.68 6 6 6 C6 6.66 6 7.32 6 8 C6.99 8.33 7.98 8.66 9 9 C8.67 9.99 8.34 10.98 8 12 C9.32 11.67 10.64 11.34 12 11 C11.67 11.99 11.34 12.98 11 14 C11.99 14.33 12.98 14.66 14 15 C13.25 19.75 13.25 19.75 11 22 C7.33333333 14.66666667 3.66666667 7.33333333 0 0 Z " fill="#C55E12" transform="translate(118,208)"/>
<path d="M0 0 C8.75 2.875 8.75 2.875 11 4 C11.33 3.01 11.66 2.02 12 1 C12.99 2.65 13.98 4.3 15 6 C14.34 6 13.68 6 13 6 C12.34 7.32 11.68 8.64 11 10 C6.27536912 9.53680089 2.82942948 8.90108294 -1 6 C-1 5.34 -1 4.68 -1 4 C-0.01 4 0.98 4 2 4 C2 3.34 2 2.68 2 2 C1.34 2 0.68 2 0 2 C0 1.34 0 0.68 0 0 Z " fill="#FA7105" transform="translate(16,189)"/>
<path d="M0 0 C0.99 0.33 1.98 0.66 3 1 C3.33 3.31 3.66 5.62 4 8 C4.99 8 5.98 8 7 8 C10 12.22222222 10 12.22222222 10 15 C9.34 15 8.68 15 8 15 C7.67 14.67 7.34 14.34 7 14 C6.67 16.97 6.34 19.94 6 23 C3.50373598 19.25560396 2.88142416 15.88353632 1.875 11.5 C1.52179687 9.9840625 1.16859375 8.468125 0.8046875 6.90625 C0 3 0 3 0 0 Z " fill="#EC7E16" transform="translate(31,197)"/>
<path d="M0 0 C0.66 0 1.32 0 2 0 C2.268125 0.763125 2.53625 1.52625 2.8125 2.3125 C3.93952095 5.30051506 3.93952095 5.30051506 7 8 C9.29746168 11.27214239 11.20825278 14.41650556 13 18 C11 18 11 18 8.375 15.5 C7.59125 14.675 6.8075 13.85 6 13 C6.33 13.66 6.66 14.32 7 15 C7 15.99 7 16.98 7 18 C6.01 18 5.02 18 4 18 C3.32678716 15.75194998 2.66165877 13.50147776 2 11.25 C1.62875 9.99703125 1.2575 8.7440625 0.875 7.453125 C0 4 0 4 0 0 Z " fill="#E7680B" transform="translate(37,220)"/>
<path d="M0 0 C0.99 0.33 1.98 0.66 3 1 C3.33 5.62 3.66 10.24 4 15 C3.34 15 2.68 15 2 15 C2 12.36 2 9.72 2 7 C1.01 7 0.02 7 -1 7 C-1 7.66 -1 8.32 -1 9 C-0.34 9 0.32 9 1 9 C1 10.98 1 12.96 1 15 C-0.65 15 -2.3 15 -4 15 C-2.91266548 9.87399439 -1.77362508 4.94081272 0 0 Z " fill="#ED5701" transform="translate(176,217)"/>
<path d="M0 0 C0.99 0.33 1.98 0.66 3 1 C3 1.66 3 2.32 3 3 C1.66666667 4.33333333 0.33333333 5.66666667 -1 7 C-2.13445813 8.717299 -3.21877641 10.46879562 -4.25 12.25 C-4.77078125 13.14203125 -5.2915625 14.0340625 -5.828125 14.953125 C-6.21484375 15.62859375 -6.6015625 16.3040625 -7 17 C-12.75 15.125 -12.75 15.125 -15 14 C-14.67 12.68 -14.34 11.36 -14 10 C-12.515 10.99 -12.515 10.99 -11 12 C-9.68 12 -8.36 12 -7 12 C-6.9175 11.071875 -6.835 10.14375 -6.75 9.1875 C-6 6 -6 6 -2 3 C-1.34 3 -0.68 3 0 3 C0 2.01 0 1.02 0 0 Z " fill="#CD7A0B" transform="translate(28,194)"/>
<path d="M0 0 C0 5.95758307 -0.90880193 11.42347181 -3 17 C-3.33 16.01 -3.66 15.02 -4 14 C-4.66 14 -5.32 14 -6 14 C-6.33 13.01 -6.66 12.02 -7 11 C-6.01 10.34 -5.02 9.68 -4 9 C-3.67 8.01 -3.34 7.02 -3 6 C-8.94 6.495 -8.94 6.495 -15 7 C-11.81237635 4.87491756 -9.73487777 4.4979837 -6 4 C-6 3.34 -6 2.68 -6 2 C-4.02 1.34 -2.04 0.68 0 0 Z " fill="#FA9B12" transform="translate(197,158)"/>
<path d="M0 0 C0.99 0 1.98 0 3 0 C2.54857225 1.77260631 2.08859477 3.5430368 1.625 5.3125 C1.36976563 6.29863281 1.11453125 7.28476563 0.8515625 8.30078125 C0 11 0 11 -2 14 C-2 13.01 -2 12.02 -2 11 C-2.66 10.67 -3.32 10.34 -4 10 C-3.01 10 -2.02 10 -1 10 C-3.33333333 10 -5.66666667 10 -8 10 C-8 10.66 -8 11.32 -8 12 C-9.32 11.67 -10.64 11.34 -12 11 C-8.55930376 8.70620251 -7.27709699 8 -3 8 C-3 7.34 -3 6.68 -3 6 C-4.32 6.33 -5.64 6.66 -7 7 C-6.34 6.01 -5.68 5.02 -5 4 C-1.875 3.8125 -1.875 3.8125 1 4 C0.67 2.68 0.34 1.36 0 0 Z " fill="#DE840D" transform="translate(199,150)"/>
<path d="M0 0 C3.80643542 1.83830578 7.17865801 4.13585065 10.67578125 6.5078125 C12.02285156 7.41789062 13.36992187 8.32796875 14.7578125 9.265625 C15.78261719 9.96429688 16.80742187 10.66296875 17.86328125 11.3828125 C13.86328125 12.3828125 13.86328125 12.3828125 11.50390625 11.23828125 C10.715 10.68785156 9.92609375 10.13742188 9.11328125 9.5703125 C8.3140625 9.02761719 7.51484375 8.48492187 6.69140625 7.92578125 C6.088125 7.41660156 5.48484375 6.90742187 4.86328125 6.3828125 C4.86328125 5.7228125 4.86328125 5.0628125 4.86328125 4.3828125 C3.21328125 4.3828125 1.56328125 4.3828125 -0.13671875 4.3828125 C-2.44921875 2.3828125 -2.44921875 2.3828125 -4.13671875 0.3828125 C-2.13671875 -0.6171875 -2.13671875 -0.6171875 0 0 Z " fill="#C39D24" transform="translate(193.13671875,58.6171875)"/>
<path d="M0 0 C4.03477342 0.58158896 6.85241201 1.86756059 10.3125 4 C11.19550781 4.53625 12.07851562 5.0725 12.98828125 5.625 C13.65214844 6.07875 14.31601563 6.5325 15 7 C15 7.33 15 7.66 15 8 C13.20759337 7.88610125 11.41605165 7.75852313 9.625 7.625 C8.12839844 7.52058594 8.12839844 7.52058594 6.6015625 7.4140625 C4 7 4 7 2 5 C2 4.01 2 3.02 2 2 C1.34 2 0.68 2 0 2 C0 1.34 0 0.68 0 0 Z " fill="#E4AA1F" transform="translate(163,42)"/>
<path d="M0 0 C2.30563247 0.6882485 4.61083319 1.37797035 6.9140625 2.07421875 C9.11377703 2.73413311 11.31736626 3.38118913 13.5234375 4.01953125 C14.69132813 4.36371094 15.85921875 4.70789062 17.0625 5.0625 C18.16722656 5.38347656 19.27195313 5.70445313 20.41015625 6.03515625 C23 7 23 7 24 9 C21.03 9 18.06 9 15 9 C15 8.01 15 7.02 15 6 C13.63875 5.9175 12.2775 5.835 10.875 5.75 C6.0316402 5.00486772 3.73121313 4.06150821 0 1 C0 0.67 0 0.34 0 0 Z " fill="#FCC92E" transform="translate(167,50)"/>
<path d="M0 0 C0.99 0.33 1.98 0.66 3 1 C3 1.99 3 2.98 3 4 C-0.42232972 5.14077657 -3.08673217 5.09815117 -6.6875 5.0625 C-8.45673828 5.04896484 -8.45673828 5.04896484 -10.26171875 5.03515625 C-11.16535156 5.02355469 -12.06898437 5.01195312 -13 5 C-12.67 4.01 -12.34 3.02 -12 2 C-8.04 2 -4.08 2 0 2 C0 1.34 0 0.68 0 0 Z " fill="#AA2900" transform="translate(87,235)"/>
<path d="M0 0 C0 3.96 0 7.92 0 12 C-3 11 -3 11 -5 8 C-5.33 8 -5.66 8 -6 8 C-6 6.02 -6 4.04 -6 2 C-1.125 0 -1.125 0 0 0 Z " fill="#FBBB2A" transform="translate(76,112)"/>
<path d="M0 0 C5.75 0.875 5.75 0.875 8 2 C8 2.66 8 3.32 8 4 C10.97 4.495 10.97 4.495 14 5 C13.67 4.67 13.34 4.34 13 4 C12.01 3.01 11.02 2.02 10 1 C14.75 1.875 14.75 1.875 17 3 C16.67 4.32 16.34 5.64 16 7 C10.98748969 6.49874897 7.44158978 5.32174011 3 3 C2.01 3 1.02 3 0 3 C0 2.01 0 1.02 0 0 Z " fill="#EB5C01" transform="translate(249,133)"/>
<path d="M0 0 C1.32 0.33 2.64 0.66 4 1 C4 1.99 4 2.98 4 4 C0.45011229 4.88747193 -2.14180778 5.10545467 -5.75 5.0625 C-6.73484375 5.05347656 -7.7196875 5.04445312 -8.734375 5.03515625 C-9.48203125 5.02355469 -10.2296875 5.01195312 -11 5 C-10.67 4.01 -10.34 3.02 -10 2 C-6.7 2 -3.4 2 0 2 C0 1.34 0 0.68 0 0 Z " fill="#9D2400" transform="translate(180,234)"/>
<path d="M0 0 C2.475 0.99 2.475 0.99 5 2 C5.125 4.875 5.125 4.875 5 8 C4.34 8.66 3.68 9.32 3 10 C1 8.3125 1 8.3125 -1 6 C-1 1 -1 1 0 0 Z " fill="#D94A00" transform="translate(85,224)"/>
<path d="M0 0 C2.89562729 -0.05412387 5.7915454 -0.09284824 8.6875 -0.125 C10.30011719 -0.14820313 11.91273437 -0.17140625 13.57421875 -0.1953125 C17.38349953 -0.02720655 19.67154706 0.27815265 23 2 C23 2.33 23 2.66 23 3 C17.06 2.67 11.12 2.34 5 2 C4.67 2.99 4.34 3.98 4 5 C2.68 4.01 1.36 3.02 0 2 C0 1.34 0 0.68 0 0 Z " fill="#FA7914" transform="translate(110,46)"/>
<path d="M0 0 C0.33 0.66 0.66 1.32 1 2 C0.34 2 -0.32 2 -1 2 C-1 3.65 -1 5.3 -1 7 C-0.01 7.33 0.98 7.66 2 8 C2.33 9.32 2.66 10.64 3 12 C3.66 12.33 4.32 12.66 5 13 C3.68 12.67 2.36 12.34 1 12 C0.67 11.34 0.34 10.68 0 10 C-2.98381282 9.26426533 -5.98487536 8.59453162 -9 8 C-7.37660195 6.29115995 -5.70680947 4.62553283 -4 3 C-3.34 3 -2.68 3 -2 3 C-2 2.34 -2 1.68 -2 1 C-1.34 0.67 -0.68 0.34 0 0 Z " fill="#DB6103" transform="translate(251,113)"/>
<path d="M0 0 C2 1 2 1 3.125 4.25 C4 8 4 8 4 13 C2.68 12.67 1.36 12.34 0 12 C0.99 11.01 1.98 10.02 3 9 C1.68 9.33 0.36 9.66 -1 10 C-1 9.01 -1 8.02 -1 7 C-1.66 6.67 -2.32 6.34 -3 6 C-3 5.34 -3 4.68 -3 4 C-2.34 4 -1.68 4 -1 4 C-0.67 2.68 -0.34 1.36 0 0 Z " fill="#FF7F18" transform="translate(127,210)"/>
<path d="M0 0 C3.10343799 1.20689255 6.01193893 2.50596946 9 4 C8.67 4.66 8.34 5.32 8 6 C8.33 6.33 8.66 6.66 9 7 C5 8 5 8 1.75 6.0625 C0.8425 5.381875 -0.065 4.70125 -1 4 C-0.67 2.68 -0.34 1.36 0 0 Z " fill="#FB8409" transform="translate(15,195)"/>
<path d="M0 0 C0.99 0 1.98 0 3 0 C3.3125 4.25 3.3125 4.25 3 9 C0.5 11.5625 0.5 11.5625 -2 13 C-1.48111378 8.62653039 -0.94158359 4.30438214 0 0 Z " fill="#DA6315" transform="translate(20,166)"/>
<path d="M0 0 C0.33 0.66 0.66 1.32 1 2 C0.26821134 4.07196631 -0.55899003 6.1108552 -1.4375 8.125 C-1.91058594 9.22070312 -2.38367188 10.31640625 -2.87109375 11.4453125 C-3.24363281 12.28835937 -3.61617188 13.13140625 -4 14 C-4.33 13.34 -4.66 12.68 -5 12 C-5.66 12 -6.32 12 -7 12 C-5.70460659 6.81842636 -3.28206487 4.18987004 0 0 Z " fill="#A63600" transform="translate(99,205)"/>
<path d="M0 0 C3.9446398 1.9723199 6.07895312 3.76316427 9 7 C9.33 7.99 9.66 8.98 10 10 C8.35 9.67 6.7 9.34 5 9 C4.67 8.01 4.34 7.02 4 6 C3.34 6 2.68 6 2 6 C1.67 4.68 1.34 3.36 1 2 C0.34 1.67 -0.32 1.34 -1 1 C-0.67 0.67 -0.34 0.34 0 0 Z " fill="#C07B0C" transform="translate(268,99)"/>
<path d="M0 0 C6.39690722 0.75257732 6.39690722 0.75257732 9.4375 2 C12.89980767 3.35114446 16.31896121 3.62565707 20 4 C20 4.33 20 4.66 20 5 C12.08 5.495 12.08 5.495 4 6 C5.32 5.67 6.64 5.34 8 5 C8 4.34 8 3.68 8 3 C7.236875 2.87625 6.47375 2.7525 5.6875 2.625 C3 2 3 2 0 0 Z " fill="#FF9A1F" transform="translate(115,51)"/>
<path d="M0 0 C-0.33 0.99 -0.66 1.98 -1 3 C-0.01 3.33 0.98 3.66 2 4 C1.25 8.75 1.25 8.75 -1 11 C-3.03435531 7.27034861 -4 5.33094958 -4 1 C-2 0 -2 0 0 0 Z " fill="#DA7412" transform="translate(130,219)"/>
<path d="M0 0 C0.66 0.33 1.32 0.66 2 1 C1.67 2.32 1.34 3.64 1 5 C-6.92 4.67 -14.84 4.34 -23 4 C-23 3.67 -23 3.34 -23 3 C-15.41 3 -7.82 3 0 3 C0 2.01 0 1.02 0 0 Z " fill="#9B2600" transform="translate(73,240)"/>
<path d="M0 0 C0.99 0 1.98 0 3 0 C5 2 5 2 5 7 C2.69 6.34 0.38 5.68 -2 5 C-1.34 3.35 -0.68 1.7 0 0 Z " fill="#D16E14" transform="translate(2,195)"/>
<path d="M0 0 C0.66 0.33 1.32 0.66 2 1 C1.01 4.63 0.02 8.26 -1 12 C-1.33 11.01 -1.66 10.02 -2 9 C-2.66 9 -3.32 9 -4 9 C-4.33 8.01 -4.66 7.02 -5 6 C-4.01 5.34 -3.02 4.68 -2 4 C-1.34 2.68 -0.68 1.36 0 0 Z " fill="#D68D14" transform="translate(195,163)"/>
<path d="M0 0 C2.31 0.33 4.62 0.66 7 1 C7 1.66 7 2.32 7 3 C8.65 3 10.3 3 12 3 C11.34 4.65 10.68 6.3 10 8 C9.01 7.34 8.02 6.68 7 6 C7 5.34 7 4.68 7 4 C6.030625 3.71125 5.06125 3.4225 4.0625 3.125 C1 2 1 2 0 0 Z " fill="#E47307" transform="translate(261,121)"/>
<path d="M0 0 C2.97626566 1.48813283 3.66498121 2.94852848 5 6 C4.6875 10.8125 4.6875 10.8125 4 15 C1.81257986 11.7188698 1.45557194 9.66915644 0.875 5.8125 C0.70742188 4.72582031 0.53984375 3.63914063 0.3671875 2.51953125 C0.24601562 1.68808594 0.12484375 0.85664063 0 0 Z " fill="#C9640F" transform="translate(33,205)"/>
<path d="M0 0 C1.423125 0.061875 2.84625 0.12375 4.3125 0.1875 C3.9825 1.1775 3.6525 2.1675 3.3125 3.1875 C-0.3175 3.1875 -3.9475 3.1875 -7.6875 3.1875 C-4.6875 0.1875 -4.6875 0.1875 0 0 Z " fill="#E83F00" transform="translate(83.6875,233.8125)"/>
<path d="M0 0 C1.65 0 3.3 0 5 0 C5 2.97 5 5.94 5 9 C3.02 8.34 1.04 7.68 -1 7 C-1 6.01 -1 5.02 -1 4 C-0.67 4.66 -0.34 5.32 0 6 C0.66 6 1.32 6 2 6 C1.34 4.02 0.68 2.04 0 0 Z " fill="#B7540C" transform="translate(5,196)"/>
<path d="M0 0 C1.65 0.33 3.3 0.66 5 1 C4.67 3.64 4.34 6.28 4 9 C3.67 9 3.34 9 3 9 C3 7.35 3 5.7 3 4 C1.35 4 -0.3 4 -2 4 C-1.34 2.68 -0.68 1.36 0 0 Z " fill="#E69E1A" transform="translate(188,171)"/>
<path d="M0 0 C0.99 0.33 1.98 0.66 3 1 C3.144375 1.7425 3.28875 2.485 3.4375 3.25 C3.90031411 5.51264678 4.43986518 7.7594607 5 10 C4.01 10 3.02 10 2 10 C1.34 6.7 0.68 3.4 0 0 Z " fill="#CD5606" transform="translate(39,228)"/>
<path d="M0 0 C0.99 0.33 1.98 0.66 3 1 C3 1.99 3 2.98 3 4 C2.34 4 1.68 4 1 4 C0.67 4.66 0.34 5.32 0 6 C-2.5625 6.625 -2.5625 6.625 -5 7 C-3.35 4.69 -1.7 2.38 0 0 Z " fill="#D74B01" transform="translate(91,216)"/>
<path d="M0 0 C3.84541871 2.10409703 6.88332841 3.88332841 10 7 C5.87248551 6.39301257 2.6678852 4.96189209 -1 3 C-0.67 2.01 -0.34 1.02 0 0 Z " fill="#AF851A" transform="translate(179,50)"/>
<path d="M0 0 C3.12290635 0.48578543 5.99580359 0.9986012 9 2 C9 2.66 9 3.32 9 4 C7.02 4.33 5.04 4.66 3 5 C2.01 3.35 1.02 1.7 0 0 Z " fill="#D27918" transform="translate(114,52)"/>
<path d="M0 0 C0.33 1.32 0.66 2.64 1 4 C1.99 4.33 2.98 4.66 4 5 C3.67 5.33 3.34 5.66 3 6 C1.35 6 -0.3 6 -2 6 C-2.33 4.68 -2.66 3.36 -3 2 C-2.01 2 -1.02 2 0 2 C0 1.34 0 0.68 0 0 Z " fill="#A12700" transform="translate(42,239)"/>
<path d="M0 0 C1.32 0.66 2.64 1.32 4 2 C4 3.32 4 4.64 4 6 C2.68 5.67 1.36 5.34 0 5 C-0.33 5.66 -0.66 6.32 -1 7 C-0.67 4.69 -0.34 2.38 0 0 Z " fill="#D85100" transform="translate(17,180)"/>
<path d="M0 0 C4.455 0.99 4.455 0.99 9 2 C9 2.66 9 3.32 9 4 C6.1875 4.25 6.1875 4.25 3 4 C2.01 2.68 1.02 1.36 0 0 Z " fill="#E36B17" transform="translate(118,208)"/>
<path d="M0 0 C0.99 0.33 1.98 0.66 3 1 C3 3 3 3 1.125 5 C0.42375 5.66 -0.2775 6.32 -1 7 C-1.66 7.66 -2.32 8.32 -3 9 C-3.33 7.68 -3.66 6.36 -4 5 C-2.68 4.34 -1.36 3.68 0 3 C0 2.01 0 1.02 0 0 Z " fill="#AD5004" transform="translate(28,194)"/>
<path d="M0 0 C2.64 0.33 5.28 0.66 8 1 C7.34 2.32 6.68 3.64 6 5 C4.02 4.01 2.04 3.02 0 2 C0 1.34 0 0.68 0 0 Z " fill="#E17A09" transform="translate(267,119)"/>
<path d="M0 0 C2.03833424 1.2739589 4.03852126 2.61061923 6 4 C6 4.66 6 5.32 6 6 C1.80884715 5.41789544 0.62457917 4.71843438 -3 2 C-2.01 1.34 -1.02 0.68 0 0 Z " fill="#DD7308" transform="translate(255,110)"/>
<path d="M0 0 C0.66 0 1.32 0 2 0 C2.33 2.97 2.66 5.94 3 9 C1.22293791 6.33440687 0.12451727 3.9719385 -1 1 C-0.67 0.67 -0.34 0.34 0 0 Z " fill="#BF700E" transform="translate(131,230)"/>
<path d="M0 0 C4.08072342 0.55144911 4.91330796 0.91330796 8 4 C2.25 3.125 2.25 3.125 0 2 C0 1.34 0 0.68 0 0 Z " fill="#DCA01A" transform="translate(163,42)"/>
<path d="M0 0 C2.6875 0.3125 2.6875 0.3125 5 1 C5 1.66 5 2.32 5 3 C2.33333333 3 -0.33333333 3 -3 3 C-2.01 2.01 -1.02 1.02 0 0 Z " fill="#FFD035" transform="translate(159,47)"/>
<path d="M0 0 C1.65 0 3.3 0 5 0 C4.67 1.65 4.34 3.3 4 5 C2.68 4.01 1.36 3.02 0 2 C0 1.34 0 0.68 0 0 Z " fill="#B26012" transform="translate(110,46)"/>
</svg>
